<?xml version="1.0" encoding="utf-8"?>
<svg version="1.1" xmlns:xlink="http://www.w3.org/1999/xlink" width="25px" height="23px" xmlns="http://www.w3.org/2000/svg">
  <g transform="matrix(1 0 0 1 -353 -12 )">
    <path d="M 24.410774410774412 17.19191919191919  C 24.803591470258137 17.553310886644216  25 17.992143658810324  25 18.50841750841751  C 25 19.024691358024693  24.803591470258137 19.463524130190795  24.410774410774412 19.824915824915823  L 21.548821548821547 22.457912457912457  C 21.156004489337825 22.819304152637486  20.679012345679013 23  20.117845117845118 23  C 19.556677890011226 23  19.079685746352414 22.819304152637486  18.68686868686869 22.457912457912457  L 12.5 16.765993265993266  L 6.313131313131313 22.457912457912457  C 5.920314253647588 22.819304152637486  5.4433221099887765 23  4.882154882154882 23  C 4.320987654320988 23  3.843995510662178 22.819304152637486  3.4511784511784516 22.457912457912457  L 0.5892255892255892 19.824915824915823  C 0.19640852974186326 19.463524130190795  0 19.024691358024693  0 18.50841750841751  C 0 17.992143658810324  0.19640852974186326 17.553310886644216  0.5892255892255892 17.19191919191919  L 6.776094276094276 11.5  L 0.5892255892255892 5.808080808080807  C 0.19640852974186326 5.446689113355778  0 5.007856341189675  0 4.491582491582491  C 0 3.9753086419753085  0.19640852974186326 3.5364758698092  0.5892255892255892 3.175084175084176  L 3.4511784511784516 0.5420875420875422  C 3.843995510662178 0.1806958473625132  4.320987654320988 0  4.882154882154882 0  C 5.4433221099887765 0  5.920314253647588 0.1806958473625132  6.313131313131313 0.5420875420875422  L 12.5 6.234006734006735  L 18.68686868686869 0.5420875420875422  C 19.079685746352414 0.1806958473625132  19.556677890011226 0  20.117845117845118 0  C 20.679012345679013 0  21.156004489337825 0.1806958473625132  21.548821548821547 0.5420875420875422  L 24.410774410774412 3.175084175084176  C 24.803591470258137 3.5364758698092  25 3.9753086419753085  25 4.491582491582491  C 25 5.007856341189675  24.803591470258137 5.446689113355778  24.410774410774412 5.808080808080807  L 18.223905723905723 11.5  L 24.410774410774412 17.19191919191919  Z " fill-rule="nonzero" fill="#ffffff" stroke="none" transform="matrix(1 0 0 1 353 12 )" />
  </g>
</svg>