<?xml version="1.0" encoding="utf-8"?>
<svg version="1.1" xmlns:xlink="http://www.w3.org/1999/xlink" width="33px" height="36px" xmlns="http://www.w3.org/2000/svg">
  <g transform="matrix(1 0 0 1 -65 -225 )">
    <path d="M 14.496995192307693 3.3649553571428554  C 14.0078125 2.8359374999999987  13.40625 2.5714285714285703  12.692307692307693 2.5714285714285703  C 11.99158653846154 2.5714285714285703  11.393329326923077 2.8225446428571446  10.897536057692307 3.324776785714285  C 10.401742788461538 3.8270089285714297  10.153846153846155 4.43303571428571  10.153846153846155 5.142857142857144  L 10.153846153846155 15.42857142857143  L 10.153846153846155 23.14285714285714  L 7.1592548076923075 19.08482142857143  C 6.6171875 18.36160714285714  5.909855769230769 18  5.037259615384616 18  C 4.349759615384616 18  3.7614182692307696 18.254464285714285  3.2722355769230766 18.76339285714286  C 2.783052884615385 19.272321428571427  2.5384615384615388 19.874999999999996  2.5384615384615388 20.57142857142857  C 2.5384615384615388 21.147321428571427  2.7103365384615388 21.662946428571427  3.0540865384615388 22.11830357142857  L 10.669471153846155 32.404017857142854  C 11.171875 33.08705357142857  11.846153846153847 33.42857142857143  12.692307692307693 33  L 26.931490384615387 33  C 27.22235576923077 33.42857142857143  27.48347355769231 33.338169642857146  27.71484375 33.15736607142857  C 27.946213942307693 32.9765625  28.094951923076923 32.745535714285715  28.16105769230769 32.464285714285715  L 29.985576923076923 25.07142857142857  C 30.302884615384613 23.785714285714285  30.461538461538463 22.486607142857146  30.461538461538463 21.17410714285714  L 30.461538461538463 16.814732142857146  C 30.461538461538463 16.265625  30.276442307692307 15.79017857142857  29.90625 15.388392857142856  C 29.536057692307693 14.986607142857144  29.086538461538463 14.785714285714285  28.55769230769231 14.785714285714285  C 28.028846153846157 14.785714285714285  27.579326923076923 14.973214285714283  27.209134615384613 15.348214285714285  C 26.83894230769231 15.723214285714285  26.653846153846153 16.178571428571427  26.653846153846153 16.714285714285715  L 26.01923076923077 16.714285714285715  L 26.01923076923077 15.488839285714285  C 26.01923076923077 14.845982142857144  25.80769230769231 14.300223214285712  25.384615384615387 13.8515625  C 24.961538461538463 13.402901785714285  24.43269230769231 13.17857142857143  23.798076923076923 13.17857142857143  C 23.189903846153847 13.17857142857143  22.66766826923077 13.39955357142857  22.23137019230769 13.841517857142856  C 21.795072115384613 14.283482142857144  21.576923076923077 14.812499999999996  21.576923076923077 15.42857142857143  L 21.576923076923077 16.714285714285715  L 20.94230769230769 16.714285714285715  L 20.94230769230769 14.90625  C 20.94230769230769 14.169642857142858  20.697716346153847 13.536830357142858  20.208533653846153 13.0078125  C 19.719350961538463 12.478794642857139  19.117788461538463 12.214285714285715  18.403846153846153 12.214285714285715  C 17.703125 12.214285714285715  17.104867788461537 12.465401785714285  16.60907451923077 12.96763392857143  C 16.11328125 13.46986607142857  15.865384615384615 14.075892857142854  15.865384615384615 14.785714285714285  L 15.865384615384615 16.714285714285715  L 15.230769230769232 16.714285714285715  L 15.230769230769232 5.263392857142856  C 15.230769230769232 4.526785714285712  14.986177884615383 3.893973214285712  14.496995192307693 3.3649553571428554  Z M 9.102764423076923 1.5066964285714297  C 10.094350961538463 0.5022321428571446  11.290865384615385 0  12.692307692307693 0  C 14.106971153846155 0  15.306790865384617 0.5189732142857162  16.291766826923077 1.5569196428571446  C 17.27674278846154 2.594866071428569  17.76923076923077 3.8303571428571392  17.76923076923077 5.263392857142856  L 17.76923076923077 9.683035714285715  C 18.060096153846157 9.656249999999998  18.27163461538462 9.642857142857144  18.403846153846153 9.642857142857144  C 19.712740384615387 9.642857142857144  20.856370192307693 10.104910714285715  21.834735576923077 11.029017857142856  C 22.45612980769231 10.747767857142856  23.110576923076927 10.607142857142856  23.798076923076923 10.607142857142856  C 25.29206730769231 10.607142857142856  26.508413461538463 11.189732142857144  27.447115384615387 12.354910714285715  C 27.804086538461537 12.261160714285712  28.174278846153847 12.214285714285715  28.55769230769231 12.214285714285715  C 29.80048076923077 12.214285714285715  30.8515625 12.666294642857144  31.7109375 13.5703125  C 32.5703125 14.474330357142856  33 15.555803571428571  33 16.814732142857146  L 33 21.17410714285714  C 33 22.72767857142857  32.81490384615385 24.234374999999996  32.44471153846154 25.69419642857143  L 30.62019230769231 33.08705357142857  C 30.408653846153847 33.94419642857143  29.959134615384617 34.643973214285715  29.271634615384613 35.18638392857143  C 28.58413461538462 35.728794642857146  27.804086538461537 36  26.931490384615387 36  L 12.692307692307693 36  C 11.899038461538462 36  11.142127403846155 35.815848214285715  10.421574519230768 35.447544642857146  C 9.701021634615385 35.07924107142857  9.102764423076925 34.580357142857146  8.626802884615385 33.950892857142854  L 1.0114182692307692 23.66517857142857  C 0.3371394230769231 22.754464285714285  0 21.723214285714285  0 20.57142857142857  C 0 19.16517857142857  0.4924879807692307 17.95647321428571  1.4774639423076923 16.9453125  C 2.4624399038461537 15.934151785714288  3.6490384615384612 15.42857142857143  5.037259615384616 15.42857142857143  C 5.975961538461539 15.42857142857143  6.835336538461539 15.662946428571429  8 16.13169642857143  L 8 5.142857142857144  C 7.615384615384616 3.7232142857142825  8.111177884615385 2.511160714285715  9.102764423076923 1.5066964285714297  Z M 14.596153846153845 28.285714285714285  L 15.230769230769232 28.285714285714285  L 15.230769230769232 20.57142857142857  L 14.596153846153845 20.57142857142857  L 14.596153846153845 28.285714285714285  Z M 19.673076923076923 28.285714285714285  L 20.30769230769231 28.285714285714285  L 20.30769230769231 20.57142857142857  L 19.673076923076923 20.57142857142857  L 19.673076923076923 28.285714285714285  Z M 24.75 28.285714285714285  L 25.384615384615387 28.285714285714285  L 25.384615384615387 20.57142857142857  L 24.75 20.57142857142857  L 24.75 28.285714285714285  Z " fill-rule="nonzero" fill="#000000" stroke="none" transform="matrix(1 0 0 1 65 225 )" />
  </g>
</svg>