<?xml version="1.0" encoding="utf-8"?>
<svg version="1.1" xmlns:xlink="http://www.w3.org/1999/xlink" width="34px" height="36px" xmlns="http://www.w3.org/2000/svg">
  <g transform="matrix(1 0 0 1 -169 -431 )">
    <path d="M 33.236328125 21.222656250000004  C 33.37651909722222 21.37109375  33.446614583333336 21.546875  33.446614583333336 21.750000000000004  C 33.446614583333336 21.828125  33.439236111111114 21.882812499999996  33.424479166666664 21.914062499999996  C 32.48003472222222 26.101562499999996  30.502604166666664 29.49609375  27.4921875 32.09765625  C 24.481770833333336 34.69921875  20.954861111111114 36  16.911458333333332 36  C 14.756944444444446 36  12.672526041666668 35.5703125  10.658203125 34.7109375  C 8.643880208333332 33.8515625  6.847222222222223 32.625  5.268229166666666 31.03125  L 2.412760416666667 34.0546875  C 2.1323784722222223 34.3515625  1.8003472222222223 34.5  1.4166666666666665 34.5  C 1.0329861111111112 34.5  0.700954861111111 34.3515625  0.42057291666666663 34.0546875  C 0.14019097222222224 33.7578125  0 33.40625  0 33  L 0 22.5  C 0 22.093749999999996  0.14019097222222224 21.742187499999996  0.42057291666666663 21.4453125  C 0.700954861111111 21.148437499999996  1.0329861111111112 20.999999999999996  1.4166666666666665 20.999999999999996  L 11.333333333333332 20.999999999999996  C 11.71701388888889 20.999999999999996  12.04904513888889 21.148437499999996  12.329427083333332 21.4453125  C 12.609809027777779 21.742187499999996  12.75 22.093749999999996  12.75 22.5  C 12.75 22.906249999999996  12.609809027777779 23.257812499999996  12.329427083333332 23.5546875  L 9.296875 26.765624999999996  C 10.344618055555557 27.796875  11.532552083333332 28.59375  12.860677083333332 29.15625  C 14.188802083333332 29.71875  15.56857638888889 30  17 30  C 18.977430555555554 30  20.822048611111114 29.492187499999996  22.533854166666664 28.4765625  C 24.245659722222225 27.460937499999996  25.618055555555557 26.062499999999996  26.651041666666664 24.281250000000004  C 26.813368055555557 24.015625  27.204427083333336 23.1015625  27.82421875 21.539062500000004  C 27.942274305555557 21.179687499999996  28.163628472222225 20.999999999999996  28.48828125 20.999999999999996  L 32.73828125 20.999999999999996  C 32.93012152777778 20.999999999999996  33.09613715277778 21.074218749999996  33.236328125 21.222656250000004  Z M 33.579427083333336 1.9453125000000013  C 33.85980902777778 2.242187499999998  34 2.593749999999998  34 3.0000000000000013  L 34 13.5  C 34 13.90625  33.85980902777778 14.2578125  33.579427083333336 14.5546875  C 33.29904513888889 14.8515625  32.96701388888889 14.999999999999998  32.583333333333336 14.999999999999998  L 22.666666666666664 14.999999999999998  C 22.282986111111114 14.999999999999998  21.950954861111114 14.8515625  21.670572916666664 14.5546875  C 21.390190972222225 14.2578125  21.250000000000004 13.90625  21.25 13.5  C 21.250000000000004 13.093749999999996  21.390190972222225 12.742187499999996  21.670572916666664 12.4453125  L 24.725260416666664 9.2109375  C 22.541232638888893 7.070312499999995  19.966145833333336 5.999999999999998  17 5.999999999999998  C 15.022569444444446 5.999999999999998  13.17795138888889 6.507812499999995  11.466145833333332 7.5234375  C 9.754340277777779 8.539062499999996  8.381944444444446 9.937499999999998  7.348958333333334 11.718750000000002  C 7.186631944444445 11.984374999999996  6.795572916666666 12.898437499999996  6.17578125 14.460937500000002  C 6.057725694444445 14.8203125  5.836371527777779 14.999999999999998  5.51171875 14.999999999999998  L 1.1067708333333335 14.999999999999998  C 0.9149305555555555 14.999999999999998  0.7489149305555556 14.92578125  0.6087239583333333 14.777343750000002  C 0.46853298611111116 14.62890625  0.3984375 14.453125  0.3984375 14.250000000000002  L 0.3984375 14.085937499999998  C 1.357638888888889 9.8984375  3.3498263888888893 6.50390625  6.375 3.90234375  C 9.400173611111112 1.30078125  12.941840277777779 0  17 0  C 19.15451388888889 0  21.25 0.43359375000000133  23.286458333333336 1.30078125  C 25.322916666666664 2.1679687499999987  27.130642361111114 3.3906249999999964  28.709635416666664 4.968750000000002  L 31.587239583333336 1.9453125000000013  C 31.86762152777778 1.648437499999997  32.19965277777778 1.4999999999999987  32.583333333333336 1.4999999999999987  C 32.96701388888889 1.4999999999999987  33.29904513888889 1.648437499999997  33.579427083333336 1.9453125000000013  Z " fill-rule="nonzero" fill="#f2f2f2" stroke="none" transform="matrix(1 0 0 1 169 431 )" />
  </g>
</svg>