<?xml version="1.0" encoding="utf-8"?>
<svg version="1.1" xmlns:xlink="http://www.w3.org/1999/xlink" width="22px" height="21px" xmlns="http://www.w3.org/2000/svg">
  <g transform="matrix(1 0 0 1 -2 -15 )">
    <path d="M 13.75 13.562499999999998  C 13.99826388888889 13.562499999999998  14.21310763888889 13.475911458333332  14.39453125 13.302734375000002  L 19.436197916666664 8.490234375  C 19.61762152777778 8.317057291666666  19.708333333333336 8.111979166666666  19.708333333333336 7.875  C 19.708333333333336 7.638020833333331  19.61762152777778 7.432942708333331  19.436197916666664 7.259765625  L 14.39453125 2.447265625000001  C 14.108072916666668 2.1647135416666665  13.778645833333334 2.1009114583333313  13.40625 2.255859375  C 13.024305555555557 2.4108072916666665  12.833333333333334 2.679687499999999  12.833333333333334 3.062500000000001  L 12.833333333333334 5.25  C 11.69704861111111 5.25  10.665798611111112 5.338867187500001  9.739583333333332 5.5166015625  C 8.813368055555555 5.694335937499999  8.037543402777779 5.9267578125  7.412109375 6.2138671875  C 6.786675347222223 6.5009765625  6.24240451388889 6.861002604166666  5.779296875 7.293945312499999  C 5.316189236111112 7.726888020833332  4.950954861111112 8.162109375  4.68359375 8.599609375  C 4.416232638888889 9.037109375  4.203776041666666 9.533854166666664  4.046223958333334 10.08984375  C 3.888671875 10.645833333333332  3.7860243055555562 11.153971354166668  3.73828125 11.614257812499998  C 3.690538194444445 12.074544270833334  3.6666666666666665 12.578124999999998  3.6666666666666665 13.125  C 3.6666666666666665 14.774739583333332  4.463975694444445 16.615885416666664  6.05859375 18.6484375  C 6.163628472222223 18.7578125  6.282986111111112 18.8125  6.416666666666667 18.8125  C 6.483506944444445 18.8125  6.545572916666667 18.798828125  6.602864583333333 18.771484375  C 6.812934027777779 18.689453125  6.903645833333334 18.5390625  6.875 18.3203125  C 6.454861111111112 15.09375  6.750868055555555 12.938151041666668  7.763020833333333 11.853515625  C 8.202256944444446 11.379557291666668  8.822916666666668 11.035481770833332  9.625 10.821289062500002  C 10.427083333333332 10.607096354166666  11.49652777777778 10.5  12.833333333333334 10.5  L 12.833333333333334 12.687500000000002  C 12.833333333333334 13.070312499999998  13.024305555555557 13.339192708333332  13.40625 13.494140625  C 13.520833333333334 13.539713541666666  13.635416666666668 13.562499999999998  13.75 13.562499999999998  Z M 20.789713541666664 1.1552734375000009  C 21.596571180555554 1.9254557291666647  22 2.8528645833333304  22 3.9375  L 22 17.0625  C 22 18.147135416666664  21.596571180555554 19.074544270833336  20.789713541666664 19.8447265625  C 19.98285590277778 20.614908854166664  19.011284722222225 21  17.875 21  L 4.125 21  C 2.9887152777777777 21  2.0171440972222223 20.614908854166664  1.2102864583333335 19.8447265625  C 0.40342881944444436 19.074544270833336  0 18.147135416666664  0 17.0625  L 0 3.9375  C 0 2.8528645833333304  0.40342881944444436 1.9254557291666647  1.2102864583333335 1.1552734375000009  C 2.0171440972222223 0.38509114583333204  2.9887152777777777 0  4.125 0  L 17.875 0  C 19.011284722222225 0  19.98285590277778 0.38509114583333204  20.789713541666664 1.1552734375000009  Z " fill-rule="nonzero" fill="#000000" stroke="none" transform="matrix(1 0 0 1 2 15 )" />
  </g>
</svg>