<?xml version="1.0" encoding="utf-8"?>
<svg version="1.1" xmlns:xlink="http://www.w3.org/1999/xlink" width="24px" height="22px" xmlns="http://www.w3.org/2000/svg">
  <g>
    <path d="M 15 14.208333333333332  C 15.270833333333332 14.208333333333332  15.505208333333332 14.117621527777777  15.703125 13.936197916666668  L 21.203125 8.89453125  C 21.401041666666668 8.71310763888889  21.5 8.49826388888889  21.5 8.25  C 21.5 8.001736111111109  21.401041666666668 7.786892361111109  21.203125 7.60546875  L 15.703125 2.563802083333334  C 15.390625000000002 2.2677951388888884  15.03125 2.200954861111109  14.625 2.36328125  C 14.208333333333336 2.5256076388888884  14 2.807291666666666  14 3.208333333333334  L 14 5.5  C 12.760416666666668 5.5  11.635416666666668 5.593098958333334  10.625 5.779296875  C 9.614583333333334 5.965494791666666  8.768229166666668 6.208984375  8.0859375 6.509765625  C 7.403645833333334 6.810546875  6.809895833333334 7.187717013888888  6.3046875 7.641276041666666  C 5.799479166666667 8.094835069444443  5.401041666666667 8.55078125  5.109375 9.009114583333334  C 4.817708333333334 9.467447916666666  4.5859375 9.98784722222222  4.4140625 10.5703125  C 4.2421875 11.152777777777777  4.130208333333334 11.685112847222223  4.078125 12.167317708333332  C 4.026041666666667 12.649522569444446  4 13.177083333333332  4 13.75  C 4 15.478298611111109  4.869791666666667 17.407118055555554  6.609375 19.536458333333336  C 6.723958333333334 19.651041666666664  6.854166666666667 19.708333333333336  7 19.708333333333336  C 7.072916666666666 19.708333333333336  7.140625 19.694010416666664  7.203125 19.665364583333336  C 7.432291666666668 19.579427083333336  7.531250000000001 19.421875  7.5 19.192708333333336  C 7.041666666666667 15.8125  7.364583333333334 13.554253472222223  8.46875 12.41796875  C 8.947916666666668 11.921440972222223  9.625 11.560980902777777  10.5 11.336588541666668  C 11.375 11.112196180555554  12.541666666666668 11  14 11  L 14 13.291666666666668  C 14 13.692708333333332  14.208333333333336 13.974392361111109  14.625 14.13671875  C 14.75 14.184461805555554  14.875000000000002 14.208333333333332  15 14.208333333333332  Z M 22.6796875 1.2102864583333341  C 23.559895833333332 2.0171440972222205  24 2.988715277777775  24 4.125  L 24 17.875  C 24 19.01128472222222  23.559895833333332 19.98285590277778  22.6796875 20.789713541666664  C 21.799479166666668 21.596571180555554  20.739583333333336 22  19.5 22  L 4.5 22  C 3.260416666666667 22  2.2005208333333335 21.596571180555554  1.3203125 20.789713541666664  C 0.44010416666666663 19.98285590277778  0 19.01128472222222  0 17.875  L 0 4.125  C 0 2.988715277777775  0.44010416666666663 2.0171440972222205  1.3203125 1.2102864583333341  C 2.2005208333333335 0.4034288194444431  3.260416666666667 0  4.5 0  L 19.5 0  C 20.739583333333336 0  21.799479166666668 0.4034288194444431  22.6796875 1.2102864583333341  Z " fill-rule="nonzero" fill="#ffffff" stroke="none" />
  </g>
</svg>