<?xml version="1.0" encoding="utf-8"?>
<svg version="1.1" xmlns:xlink="http://www.w3.org/1999/xlink" width="13px" height="13px" viewBox="138 937.5  13 13" xmlns="http://www.w3.org/2000/svg">
  <path d="M 144.5 937.5  C 148.14 937.5  151 940.36  151 944  C 151 947.64  148.14 950.5  144.5 950.5  C 140.86 950.5  138 947.64  138 944  C 138 940.36  140.86 937.5  144.5 937.5  Z " fill-rule="nonzero" fill="#ffffff" stroke="none" />
  <path d="M 144.5 938  C 147.86 938  150.5 940.64  150.5 944  C 150.5 947.36  147.86 950  144.5 950  C 141.14 950  138.5 947.36  138.5 944  C 138.5 940.64  141.14 938  144.5 938  Z " stroke-width="1" stroke="#797979" fill="none" />
  <path d="M 144.5 947.25  C 142.68 947.25  141.25 945.82  141.25 944  C 141.25 942.18  142.68 940.75  144.5 940.75  C 146.32 940.75  147.75 942.18  147.75 944  C 147.75 945.82  146.32 947.25  144.5 947.25  " fill-rule="nonzero" fill="#797979" stroke="none" />
</svg>