<?xml version="1.0" encoding="utf-8"?>
<svg version="1.1" xmlns:xlink="http://www.w3.org/1999/xlink" width="13px" height="13px" viewBox="239 937.5  13 13" xmlns="http://www.w3.org/2000/svg">
  <path d="M 245.5 937.5  C 249.14 937.5  252 940.36  252 944  C 252 947.64  249.14 950.5  245.5 950.5  C 241.86 950.5  239 947.64  239 944  C 239 940.36  241.86 937.5  245.5 937.5  Z " fill-rule="nonzero" fill="#f0f0f0" stroke="none" />
  <path d="M 245.5 938  C 248.86 938  251.5 940.64  251.5 944  C 251.5 947.36  248.86 950  245.5 950  C 242.14 950  239.5 947.36  239.5 944  C 239.5 940.64  242.14 938  245.5 938  Z " stroke-width="1" stroke="#797979" fill="none" />
  <path d="M 245.5 947.25  C 243.68 947.25  242.25 945.82  242.25 944  C 242.25 942.18  243.68 940.75  245.5 940.75  C 247.32 940.75  248.75 942.18  248.75 944  C 248.75 945.82  247.32 947.25  245.5 947.25  " fill-rule="nonzero" fill="#797979" stroke="none" />
</svg>