<?xml version="1.0" encoding="utf-8"?>
<svg version="1.1" xmlns:xlink="http://www.w3.org/1999/xlink" width="13px" height="13px" viewBox="118 1032.5  13 13" xmlns="http://www.w3.org/2000/svg">
  <path d="M 124.5 1032.5  C 128.14 1032.5  131 1035.36  131 1039  C 131 1042.64  128.14 1045.5  124.5 1045.5  C 120.86 1045.5  118 1042.64  118 1039  C 118 1035.36  120.86 1032.5  124.5 1032.5  Z " fill-rule="nonzero" fill="#ffffff" stroke="none" />
  <path d="M 124.5 1033  C 127.86 1033  130.5 1035.64  130.5 1039  C 130.5 1042.36  127.86 1045  124.5 1045  C 121.14 1045  118.5 1042.36  118.5 1039  C 118.5 1035.64  121.14 1033  124.5 1033  Z " stroke-width="1" stroke="#797979" fill="none" />
  <path d="M 124.5 1042.25  C 122.68 1042.25  121.25 1040.82  121.25 1039  C 121.25 1037.18  122.68 1035.75  124.5 1035.75  C 126.32 1035.75  127.75 1037.18  127.75 1039  C 127.75 1040.82  126.32 1042.25  124.5 1042.25  " fill-rule="nonzero" fill="#797979" stroke="none" />
</svg>