<?xml version="1.0" encoding="utf-8"?>
<svg version="1.1" xmlns:xlink="http://www.w3.org/1999/xlink" width="13px" height="13px" viewBox="39 937.5  13 13" xmlns="http://www.w3.org/2000/svg">
  <path d="M 45.5 937.5  C 49.14 937.5  52 940.36  52 944  C 52 947.64  49.14 950.5  45.5 950.5  C 41.86 950.5  39 947.64  39 944  C 39 940.36  41.86 937.5  45.5 937.5  Z " fill-rule="nonzero" fill="#f0f0f0" stroke="none" />
  <path d="M 45.5 938  C 48.86 938  51.5 940.64  51.5 944  C 51.5 947.36  48.86 950  45.5 950  C 42.14 950  39.5 947.36  39.5 944  C 39.5 940.64  42.14 938  45.5 938  Z " stroke-width="1" stroke="#797979" fill="none" />
  <path d="M 45.5 947.25  C 43.68 947.25  42.25 945.82  42.25 944  C 42.25 942.18  43.68 940.75  45.5 940.75  C 47.32 940.75  48.75 942.18  48.75 944  C 48.75 945.82  47.32 947.25  45.5 947.25  " fill-rule="nonzero" fill="#797979" stroke="none" />
</svg>