<?xml version="1.0" encoding="utf-8"?>
<svg version="1.1" xmlns:xlink="http://www.w3.org/1999/xlink" width="369px" height="83px" xmlns="http://www.w3.org/2000/svg">
  <g transform="matrix(1 0 0 1 -5 -584 )">
    <path d="M 32.744027303754265 83  C 14.407372013651866 83  0 64.74000000000005  0 41.5  C 0 33.35608340367009  1.7692090711890622 25.823705203528906  4.856734047639026 19.47433042470694  C 10.579967335220672 7.704724229887554  20.83302568569336 0  32.744027303754265 0  L 269.49438202247194 0  L 279.85955056179773 0  L 298.51685393258424 0  L 336.25597269624575 0  C 349.8482451775492 0  361.28149478967424 10.033320281964873  366.28798179972614 24.690998861098468  C 368.03549612712334 29.80726167612063  369 35.4869373813225  369 41.5  C 369 64.74000000000005  354.59262798634813 83  336.25597269624575 83  L 32.744027303754265 83  Z " fill-rule="nonzero" fill="#333333" stroke="none" transform="matrix(1 0 0 1 5 584 )" />
  </g>
</svg>