<?xml version="1.0" encoding="utf-8"?>
<svg version="1.1" xmlns:xlink="http://www.w3.org/1999/xlink" width="137px" height="87px" xmlns="http://www.w3.org/2000/svg">
  <defs>
    <mask fill="white" id="clip2">
      <path d="M 118.37864077669899 43.5  C 118.28695449466653 19.419964331475928  136.33495145631068 0.3565573770491888  136.33495145631068 0.3565573770491888  L 19.286407766990287 0.3565573770491888  C 19.286407766990287 0.3565573770491888  1.2382329508653875 19.420940953452014  1.3300970873786377 43.5  C 1.4210547222827274 67.34145048023439  19.286407766990287 86  19.286407766990287 86  L 136.33495145631068 86  C 136.33495145631068 86  118.46941492381464 67.34047702523767  118.37864077669899 43.5  Z " fill-rule="evenodd" />
    </mask>
  </defs>
  <g transform="matrix(1 0 0 1 -321 -591 )">
    <path d="M 118.37864077669899 43.5  C 118.28695449466653 19.419964331475928  136.33495145631068 0.3565573770491888  136.33495145631068 0.3565573770491888  L 19.286407766990287 0.3565573770491888  C 19.286407766990287 0.3565573770491888  1.2382329508653875 19.420940953452014  1.3300970873786377 43.5  C 1.4210547222827274 67.34145048023439  19.286407766990287 86  19.286407766990287 86  L 136.33495145631068 86  C 136.33495145631068 86  118.46941492381464 67.34047702523767  118.37864077669899 43.5  Z " fill-rule="nonzero" fill="#ffffff" stroke="none" transform="matrix(1 0 0 1 321 591 )" />
    <path d="M 118.37864077669899 43.5  C 118.28695449466653 19.419964331475928  136.33495145631068 0.3565573770491888  136.33495145631068 0.3565573770491888  L 19.286407766990287 0.3565573770491888  C 19.286407766990287 0.3565573770491888  1.2382329508653875 19.420940953452014  1.3300970873786377 43.5  C 1.4210547222827274 67.34145048023439  19.286407766990287 86  19.286407766990287 86  L 136.33495145631068 86  C 136.33495145631068 86  118.46941492381464 67.34047702523767  118.37864077669899 43.5  Z " stroke-width="2" stroke="#797979" fill="none" transform="matrix(1 0 0 1 321 591 )" mask="url(#clip2)" />
  </g>
</svg>