<?xml version="1.0" encoding="utf-8"?>
<svg version="1.1" xmlns:xlink="http://www.w3.org/1999/xlink" width="176px" height="82px" xmlns="http://www.w3.org/2000/svg">
  <defs>
    <mask fill="white" id="clip3">
      <path d="M 176 0  L 0 0  L 0 67.81161286818454  C 0 67.81161286818454  20.910891089108954 83.5827113550062  49.22772277227734 81.86995087642003  C 77.54455445544552 80.15719039783386  92.79207920792075 60.631720941951265  125.9009900990099 59.26151255908226  C 159.00990099009906 57.89130417621332  176 59.26151255908226  176 59.26151255908226  L 176 0  Z " fill-rule="evenodd" />
    </mask>
  </defs>
  <g transform="matrix(1 0 0 1 -992 -553 )">
    <path d="M 176 0  L 0 0  L 0 67.81161286818454  C 0 67.81161286818454  20.910891089108954 83.5827113550062  49.22772277227734 81.86995087642003  C 77.54455445544552 80.15719039783386  92.79207920792075 60.631720941951265  125.9009900990099 59.26151255908226  C 159.00990099009906 57.89130417621332  176 59.26151255908226  176 59.26151255908226  L 176 0  Z " fill-rule="nonzero" fill="#ffffff" stroke="none" transform="matrix(1 0 0 1 992 553 )" />
    <path d="M 176 0  L 0 0  L 0 67.81161286818454  C 0 67.81161286818454  20.910891089108954 83.5827113550062  49.22772277227734 81.86995087642003  C 77.54455445544552 80.15719039783386  92.79207920792075 60.631720941951265  125.9009900990099 59.26151255908226  C 159.00990099009906 57.89130417621332  176 59.26151255908226  176 59.26151255908226  L 176 0  Z " stroke-width="2" stroke="#797979" fill="none" transform="matrix(1 0 0 1 992 553 )" mask="url(#clip3)" />
  </g>
</svg>