<?xml version="1.0" encoding="utf-8"?>
<svg version="1.1" xmlns:xlink="http://www.w3.org/1999/xlink" width="22px" height="20px" xmlns="http://www.w3.org/2000/svg">
  <defs>
    <mask fill="white" id="clip5">
      <path d="M 0 10  C 0 4.399999999999977  4.840000000000032 0  11 0  C 15.757047887102205 0  19.72689130063577 2.624014911895074  21.28841795587948 6.398306295029329  C 21.748944562361658 7.5114231263770534  22 8.724588988274718  22 10  C 22 15.600000000000023  17.159999999999968 20  11 20  C 4.840000000000032 20  0 15.600000000000023  0 10  Z " fill-rule="evenodd" />
    </mask>
  </defs>
  <g transform="matrix(1 0 0 1 -645 -606 )">
    <path d="M 0 10  C 0 4.399999999999977  4.840000000000032 0  11 0  C 15.757047887102205 0  19.72689130063577 2.624014911895074  21.28841795587948 6.398306295029329  C 21.748944562361658 7.5114231263770534  22 8.724588988274718  22 10  C 22 15.600000000000023  17.159999999999968 20  11 20  C 4.840000000000032 20  0 15.600000000000023  0 10  Z " fill-rule="nonzero" fill="#000000" stroke="none" transform="matrix(1 0 0 1 645 606 )" />
    <path d="M 0 10  C 0 4.399999999999977  4.840000000000032 0  11 0  C 15.757047887102205 0  19.72689130063577 2.624014911895074  21.28841795587948 6.398306295029329  C 21.748944562361658 7.5114231263770534  22 8.724588988274718  22 10  C 22 15.600000000000023  17.159999999999968 20  11 20  C 4.840000000000032 20  0 15.600000000000023  0 10  Z " stroke-width="2" stroke="#797979" fill="none" transform="matrix(1 0 0 1 645 606 )" mask="url(#clip5)" />
  </g>
</svg>