<?xml version="1.0" encoding="utf-8"?>
<svg version="1.1" xmlns:xlink="http://www.w3.org/1999/xlink" width="22px" height="20px" xmlns="http://www.w3.org/2000/svg">
  <defs>
    <mask fill="white" id="clip6">
      <path d="M 0 10  C 0 4.399999999999977  4.8400000000001455 0  11 0  C 12.969941900374577 0  14.804888285065772 0.4499850522787483  16.38971650355029 1.2452982018153307  C 18.63195736092416 2.3705202400770986  20.373535366392844 4.186987351171524  21.288417955879595 6.398306295029329  C 21.748944562361658 7.5114231263770534  22 8.724588988274718  22 10  C 22 15.600000000000023  17.159999999999854 20  11 20  C 4.8400000000001455 20  0 15.600000000000023  0 10  Z " fill-rule="evenodd" />
    </mask>
  </defs>
  <g transform="matrix(1 0 0 1 -1183 -606 )">
    <path d="M 0 10  C 0 4.399999999999977  4.8400000000001455 0  11 0  C 12.969941900374577 0  14.804888285065772 0.4499850522787483  16.38971650355029 1.2452982018153307  C 18.63195736092416 2.3705202400770986  20.373535366392844 4.186987351171524  21.288417955879595 6.398306295029329  C 21.748944562361658 7.5114231263770534  22 8.724588988274718  22 10  C 22 15.600000000000023  17.159999999999854 20  11 20  C 4.8400000000001455 20  0 15.600000000000023  0 10  Z " fill-rule="nonzero" fill="#000000" stroke="none" transform="matrix(1 0 0 1 1183 606 )" />
    <path d="M 0 10  C 0 4.399999999999977  4.8400000000001455 0  11 0  C 12.969941900374577 0  14.804888285065772 0.4499850522787483  16.38971650355029 1.2452982018153307  C 18.63195736092416 2.3705202400770986  20.373535366392844 4.186987351171524  21.288417955879595 6.398306295029329  C 21.748944562361658 7.5114231263770534  22 8.724588988274718  22 10  C 22 15.600000000000023  17.159999999999854 20  11 20  C 4.8400000000001455 20  0 15.600000000000023  0 10  Z " stroke-width="2" stroke="#797979" fill="none" transform="matrix(1 0 0 1 1183 606 )" mask="url(#clip6)" />
  </g>
</svg>