<?xml version="1.0" encoding="utf-8"?>
<svg version="1.1" xmlns:xlink="http://www.w3.org/1999/xlink" width="76px" height="60px" xmlns="http://www.w3.org/2000/svg">
  <g transform="matrix(1 0 0 1 -13 -452 )">
    <path d="M 13 452  L 89 452  L 89 512  L 13 512  L 13 452  " fill-rule="nonzero" fill="#cccccc" stroke="none" />
    <path d="M 17 456  L 85 456  L 85 508  L 17 508  L 17 456  " fill-rule="nonzero" fill="#ffffff" stroke="none" />
    <path d="M 57.02 470  C 54.5 470  52.52 468.02  52.52 465.5  C 52.52 462.98  54.5 461  57.02 461  C 59.540000000000006 461  61.52 462.98  61.52 465.5  C 61.52 468.02  59.540000000000006 470  57.02 470  " fill-rule="nonzero" fill="#cccccc" stroke="none" />
    <path d="M 19 507  L 19 480.05  L 35.25 467.8  L 58 483.7894736842105  L 71 475.15  L 84 483.7894736842105  L 84 507  L 19 507  " fill-rule="nonzero" fill="#169bd5" stroke="none" />
  </g>
</svg>