<?xml version="1.0" encoding="utf-8"?>
<svg version="1.1" xmlns:xlink="http://www.w3.org/1999/xlink" width="7px" height="31px" xmlns="http://www.w3.org/2000/svg">
  <g transform="matrix(1 0 0 1 -319 -38 )">
    <path d="M 6.489583333333334 23.161931818181817  C 6.82986111111111 23.57291666666666  7 24.071969696969695  7 24.659090909090907  L 7 28.886363636363637  C 7 29.47348484848485  6.82986111111111 29.972537878787875  6.489583333333334 30.383522727272727  C 6.149305555555556 30.794507575757578  5.736111111111112 31  5.25 31  L 1.75 31  C 1.263888888888889 31  0.8506944444444445 30.794507575757578  0.5104166666666667 30.383522727272727  C 0.17013888888888887 29.972537878787875  0 29.47348484848485  0 28.886363636363637  L 0 24.659090909090907  C 0 24.071969696969695  0.17013888888888887 23.57291666666666  0.5104166666666667 23.161931818181817  C 0.8506944444444445 22.750946969696972  1.263888888888889 22.545454545454547  1.75 22.545454545454547  L 5.25 22.545454545454547  C 5.736111111111112 22.545454545454547  6.149305555555556 22.750946969696972  6.489583333333334 23.161931818181817  Z M 6.489583333333334 11.889204545454547  C 6.82986111111111 12.30018939393939  7 12.799242424242424  7 13.386363636363635  L 7 17.613636363636363  C 7 18.200757575757578  6.82986111111111 18.699810606060606  6.489583333333334 19.110795454545453  C 6.149305555555556 19.5217803030303  5.736111111111112 19.727272727272727  5.25 19.727272727272727  L 1.75 19.727272727272727  C 1.263888888888889 19.727272727272727  0.8506944444444445 19.5217803030303  0.5104166666666667 19.110795454545453  C 0.17013888888888887 18.699810606060606  0 18.200757575757578  0 17.613636363636363  L 0 13.386363636363635  C 0 12.799242424242424  0.17013888888888887 12.30018939393939  0.5104166666666667 11.889204545454547  C 0.8506944444444445 11.478219696969695  1.263888888888889 11.272727272727273  1.75 11.272727272727273  L 5.25 11.272727272727273  C 5.736111111111112 11.272727272727273  6.149305555555556 11.478219696969695  6.489583333333334 11.889204545454547  Z M 6.489583333333334 0.616477272727273  C 6.82986111111111 1.0274621212121193  7 1.52651515151515  7 2.113636363636365  L 7 6.340909090909092  C 7 6.9280303030303  6.82986111111111 7.427083333333331  6.489583333333334 7.838068181818181  C 6.149305555555556 8.249053030303028  5.736111111111112 8.454545454545453  5.25 8.454545454545453  L 1.75 8.454545454545453  C 1.263888888888889 8.454545454545453  0.8506944444444445 8.249053030303028  0.5104166666666667 7.838068181818181  C 0.17013888888888887 7.427083333333331  0 6.9280303030303  0 6.340909090909092  L 0 2.113636363636365  C 0 1.52651515151515  0.17013888888888887 1.0274621212121193  0.5104166666666667 0.616477272727273  C 0.8506944444444445 0.2054924242424232  1.263888888888889 0  1.75 0  L 5.25 0  C 5.736111111111112 0  6.149305555555556 0.2054924242424232  6.489583333333334 0.616477272727273  Z " fill-rule="nonzero" fill="#ffffff" stroke="none" transform="matrix(1 0 0 1 319 38 )" />
  </g>
</svg>