<?xml version="1.0" encoding="utf-8"?>
<svg version="1.1" xmlns:xlink="http://www.w3.org/1999/xlink" width="21px" height="22px" xmlns="http://www.w3.org/2000/svg">
  <g transform="matrix(1 0 0 1 -119 -421 )">
    <path d="M 17.30859375 9.32421875  C 17.47265625 9.15234375  17.5546875 8.9375  17.5546875 8.6796875  C 17.5546875 8.41232638888889  17.47265625 8.192708333333334  17.30859375 8.020833333333334  L 16.064453125 6.731770833333334  C 15.89127604166667 6.5503472222222205  15.68619791666667 6.459635416666666  15.44921875 6.459635416666666  C 15.212239583333334 6.459635416666666  15.007161458333334 6.5503472222222205  14.833984375 6.731770833333334  L 9.255859375 12.561197916666668  L 6.166015625 9.32421875  C 5.992838541666667 9.14279513888889  5.787760416666667 9.052083333333334  5.55078125 9.052083333333334  C 5.313802083333334 9.052083333333334  5.108723958333333 9.14279513888889  4.935546875 9.32421875  L 3.69140625 10.61328125  C 3.52734375 10.78515625  3.4453125000000004 11.004774305555554  3.4453125 11.272135416666668  C 3.4453125000000004 11.529947916666668  3.52734375 11.744791666666668  3.69140625 11.916666666666668  L 8.640625 17.1015625  C 8.813802083333334 17.282986111111107  9.018880208333334 17.373697916666664  9.255859375 17.373697916666664  C 9.501953125 17.373697916666664  9.711588541666668 17.282986111111107  9.884765625 17.1015625  L 17.30859375 9.32421875  Z M 19.591796875 5.478515625  C 20.530598958333332 7.163845486111109  21 9.004340277777775  21 11  C 21 12.995659722222223  20.530598958333332 14.836154513888886  19.591796875 16.521484375  C 18.652994791666668 18.20681423611111  17.379231770833332 19.54123263888889  15.7705078125 20.524739583333336  C 14.161783854166668 21.50824652777778  12.404947916666668 22  10.5 22  C 8.595052083333334 22  6.838216145833334 21.50824652777778  5.2294921875 20.524739583333336  C 3.620768229166667 19.54123263888889  2.3470052083333335 18.20681423611111  1.408203125 16.521484375  C 0.46940104166666663 14.836154513888886  0 12.995659722222223  0 11  C 0 9.004340277777775  0.46940104166666663 7.163845486111109  1.408203125 5.478515625  C 2.3470052083333335 3.7931857638888884  3.620768229166667 2.458767361111109  5.2294921875 1.4752604166666659  C 6.838216145833334 0.4917534722222203  8.595052083333334 0  10.5 0  C 12.404947916666668 0  14.161783854166668 0.4917534722222203  15.7705078125 1.4752604166666659  C 17.379231770833332 2.458767361111109  18.652994791666668 3.7931857638888884  19.591796875 5.478515625  Z " fill-rule="nonzero" fill="#f59a23" stroke="none" transform="matrix(1 0 0 1 119 421 )" />
  </g>
</svg>