<?xml version="1.0" encoding="utf-8"?>
<svg version="1.1" xmlns:xlink="http://www.w3.org/1999/xlink" width="33px" height="34px" xmlns="http://www.w3.org/2000/svg">
  <g transform="matrix(1 0 0 1 -77 -354 )">
    <path d="M 93.5 354  C 102.74000000000001 354  110 361.48  110 371  C 110 380.52  102.74000000000001 388  93.5 388  C 84.26 388  77 380.52  77 371  C 77 361.48  84.26 354  93.5 354  Z " fill-rule="nonzero" fill="#000000" stroke="none" />
    <path d="M 93.5 354.5  C 102.46000000000001 354.5  109.5 361.76  109.5 371  C 109.5 380.24  102.46000000000001 387.5  93.5 387.5  C 84.53999999999999 387.5  77.5 380.24  77.5 371  C 77.5 361.76  84.53999999999999 354.5  93.5 354.5  Z " stroke-width="1" stroke="#797979" fill="none" />
  </g>
</svg>