<?xml version="1.0" encoding="utf-8"?>
<svg version="1.1" xmlns:xlink="http://www.w3.org/1999/xlink" width="327px" height="168px" xmlns="http://www.w3.org/2000/svg">
  <g transform="matrix(1 0 0 1 -1029 -697 )">
    <path d="M 1192.5 697  C 1284.06 697  1356 733.96  1356 781  C 1356 828.04  1284.06 865  1192.5 865  C 1100.94 865  1029 828.04  1029 781  C 1029 733.96  1100.94 697  1192.5 697  Z " fill-rule="nonzero" fill="#ffffff" stroke="none" fill-opacity="0" />
    <path d="M 1192.5 697.5  C 1283.78 697.5  1355.5 734.24  1355.5 781  C 1355.5 827.76  1283.78 864.5  1192.5 864.5  C 1101.22 864.5  1029.5 827.76  1029.5 781  C 1029.5 734.24  1101.22 697.5  1192.5 697.5  Z " stroke-width="1" stroke="#d9001b" fill="none" />
  </g>
</svg>