<?xml version="1.0" encoding="utf-8"?>
<svg version="1.1" xmlns:xlink="http://www.w3.org/1999/xlink" width="218px" height="6px" xmlns="http://www.w3.org/2000/svg">
  <g transform="matrix(1 0 0 1 -94 -88 )">
    <path d="M 96 91  A 1 1 0 0 1 97 90 L 309 90  A 1 1 0 0 1 310 91 A 1 1 0 0 1 309 92 L 97 92  A 1 1 0 0 1 96 91 Z " fill-rule="nonzero" fill="#1e98d7" stroke="none" fill-opacity="0.25882352941176473" />
    <path d="M 95 91  A 2 2 0 0 1 97 89 L 309 89  A 2 2 0 0 1 311 91 A 2 2 0 0 1 309 93 L 97 93  A 2 2 0 0 1 95 91 Z " stroke-width="2" stroke="#1e98d7" fill="none" stroke-opacity="0.25098039215686274" />
  </g>
</svg>