<?xml version="1.0" encoding="utf-8"?>
<svg version="1.1" xmlns:xlink="http://www.w3.org/1999/xlink" width="84px" height="30px" xmlns="http://www.w3.org/2000/svg">
  <defs>
    <mask fill="white" id="clip26">
      <path d="M 0 26.25  L 0 3.75  C 0 1.650000000000034  1.3199999999999932 0  3 0  L 81 0  C 82.68 0  84 1.650000000000034  84 3.75  L 84 15.75  L 84 26.25  C 84 28.349999999999966  82.68 30  81 30  L 3 30  C 1.3199999999999932 30  0 28.349999999999966  0 26.25  Z " fill-rule="evenodd" />
    </mask>
  </defs>
  <g transform="matrix(1 0 0 1 -291 -647 )">
    <path d="M 0 26.25  L 0 3.75  C 0 1.650000000000034  1.3199999999999932 0  3 0  L 81 0  C 82.68 0  84 1.650000000000034  84 3.75  L 84 15.75  L 84 26.25  C 84 28.349999999999966  82.68 30  81 30  L 3 30  C 1.3199999999999932 30  0 28.349999999999966  0 26.25  Z " fill-rule="nonzero" fill="#d7d7d7" stroke="none" transform="matrix(1 0 0 1 291 647 )" />
    <path d="M 0 26.25  L 0 3.75  C 0 1.650000000000034  1.3199999999999932 0  3 0  L 81 0  C 82.68 0  84 1.650000000000034  84 3.75  L 84 15.75  L 84 26.25  C 84 28.349999999999966  82.68 30  81 30  L 3 30  C 1.3199999999999932 30  0 28.349999999999966  0 26.25  Z " stroke-width="2" stroke="#797979" fill="none" transform="matrix(1 0 0 1 291 647 )" mask="url(#clip26)" />
  </g>
</svg>