<?xml version="1.0" encoding="utf-8"?>
<svg version="1.1" xmlns:xlink="http://www.w3.org/1999/xlink" width="19px" height="19px" xmlns="http://www.w3.org/2000/svg">
  <g transform="matrix(1 0 0 1 -249 -129 )">
    <path d="M 12.555338541666666 15.722005208333334  C 12.629557291666666 15.647786458333334  12.666666666666666 15.552951388888888  12.666666666666666 15.4375  L 12.666666666666666 13.458333333333332  C 12.666666666666666 13.342881944444445  12.629557291666666 13.248046875  12.555338541666666 13.173828125  C 12.481119791666666 13.099609375  12.386284722222221 13.0625  12.270833333333334 13.0625  L 11.083333333333334 13.0625  L 11.083333333333334 6.729166666666666  C 11.083333333333334 6.613715277777778  11.046223958333334 6.518880208333334  10.972005208333334 6.444661458333334  C 10.897786458333334 6.370442708333334  10.80295138888889 6.333333333333334  10.6875 6.333333333333334  L 6.729166666666667 6.333333333333334  C 6.6137152777777795 6.333333333333334  6.518880208333333 6.370442708333334  6.444661458333333 6.444661458333334  C 6.370442708333333 6.518880208333334  6.333333333333333 6.613715277777778  6.333333333333333 6.729166666666666  L 6.333333333333333 8.708333333333334  C 6.333333333333333 8.823784722222221  6.370442708333333 8.918619791666666  6.444661458333333 8.992838541666666  C 6.518880208333333 9.067057291666666  6.6137152777777795 9.104166666666666  6.729166666666667 9.104166666666666  L 7.916666666666667 9.104166666666666  L 7.916666666666667 13.0625  L 6.729166666666667 13.0625  C 6.6137152777777795 13.0625  6.518880208333333 13.099609375  6.444661458333333 13.173828125  C 6.370442708333333 13.248046875  6.333333333333333 13.342881944444445  6.333333333333333 13.458333333333332  L 6.333333333333333 15.4375  C 6.333333333333333 15.552951388888888  6.370442708333333 15.647786458333334  6.444661458333333 15.722005208333334  C 6.518880208333333 15.796223958333334  6.6137152777777795 15.833333333333334  6.729166666666667 15.833333333333334  L 12.270833333333334 15.833333333333334  C 12.386284722222221 15.833333333333334  12.481119791666666 15.796223958333334  12.555338541666666 15.722005208333334  Z M 10.972005208333334 4.638671875  C 11.046223958333334 4.564453125  11.083333333333334 4.469618055555554  11.083333333333334 4.354166666666666  L 11.083333333333334 2.375  C 11.083333333333334 2.25954861111111  11.046223958333334 2.164713541666666  10.972005208333334 2.090494791666666  C 10.897786458333334 2.016276041666666  10.80295138888889 1.979166666666666  10.6875 1.979166666666666  L 8.3125 1.979166666666666  C 8.197048611111112 1.979166666666666  8.102213541666668 2.016276041666666  8.027994791666668 2.090494791666666  C 7.953776041666667 2.164713541666666  7.916666666666667 2.25954861111111  7.916666666666667 2.375  L 7.916666666666667 4.354166666666666  C 7.916666666666667 4.469618055555554  7.953776041666667 4.564453125  8.027994791666668 4.638671875  C 8.102213541666668 4.712890625  8.197048611111112 4.75  8.3125 4.75  L 10.6875 4.75  C 10.80295138888889 4.75  10.897786458333334 4.712890625  10.972005208333334 4.638671875  Z M 17.725911458333336 4.7314453125  C 18.575303819444443 6.186957465277776  19 7.776475694444442  19 9.5  C 19 11.223524305555555  18.575303819444443 12.81304253472222  17.725911458333336 14.2685546875  C 16.876519097222225 15.724066840277779  15.724066840277779 16.87651909722222  14.2685546875 17.725911458333336  C 12.813042534722225 18.575303819444446  11.223524305555555 19  9.5 19  C 7.776475694444445 19  6.186957465277778 18.575303819444446  4.7314453125 17.725911458333336  C 3.2759331597222223 16.87651909722222  2.123480902777778 15.724066840277779  1.2740885416666667 14.2685546875  C 0.42469618055555547 12.81304253472222  0 11.223524305555555  0 9.5  C 0 7.776475694444442  0.42469618055555547 6.186957465277776  1.2740885416666667 4.7314453125  C 2.123480902777778 3.275933159722222  3.2759331597222223 2.123480902777776  4.7314453125 1.274088541666666  C 6.186957465277778 0.4246961805555539  7.776475694444445 0  9.5 0  C 11.223524305555555 0  12.813042534722225 0.4246961805555539  14.2685546875 1.274088541666666  C 15.724066840277779 2.123480902777776  16.876519097222225 3.275933159722222  17.725911458333336 4.7314453125  Z " fill-rule="nonzero" fill="#ffffff" stroke="none" transform="matrix(1 0 0 1 249 129 )" />
  </g>
</svg>