<?xml version="1.0" encoding="utf-8"?>
<svg version="1.1" xmlns:xlink="http://www.w3.org/1999/xlink" width="52px" height="56px" xmlns="http://www.w3.org/2000/svg">
  <g transform="matrix(1 0 0 1 -123 -97 )">
    <path d="M 42.690104166666664 51.40625  C 43.118923611111114 51.010416666666664  43.333333333333336 50.541666666666664  43.333333333333336 50  C 43.333333333333336 49.458333333333336  43.118923611111114 48.989583333333336  42.690104166666664 48.59375  C 42.26128472222223 48.197916666666664  41.75347222222223 48  41.166666666666664 48  C 40.579861111111114 48  40.072048611111114 48.197916666666664  39.643229166666664 48.59375  C 39.21440972222223 48.989583333333336  39 49.458333333333336  39 50  C 39 50.541666666666664  39.21440972222223 51.010416666666664  39.643229166666664 51.40625  C 40.072048611111114 51.802083333333336  40.579861111111114 52  41.166666666666664 52  C 41.75347222222223 52  42.26128472222223 51.802083333333336  42.690104166666664 51.40625  Z M 46.583333333333336 31.734374999999996  C 47.30555555555556 29.682291666666664  47.666666666666664 27.8125  47.666666666666664 26.124999999999996  C 47.666666666666664 22.187499999999996  45.78211805555556 20.218749999999996  42.013020833333336 20.218749999999996  C 41.42621527777778 20.218749999999996  40.794270833333336 20.270833333333332  40.1171875 20.375  C 39.75607638888889 19.75  39.16362847222223 19.255208333333325  38.33984375 18.890625  C 37.51605902777778 18.526041666666664  36.68663194444444 18.34375  35.8515625 18.34375  C 35.01649305555556 18.34375  34.23784722222223 18.53125  33.515625 18.906249999999996  C 32.38715277777778 17.80208333333333  31.044270833333336 17.25  29.486979166666664 17.25  C 28.92274305555556 17.25  28.296440972222225 17.354166666666664  27.608072916666664 17.5625  C 26.919704861111114 17.77083333333333  26.383680555555554 18.031249999999996  26 18.34375  L 26 8.000000000000004  C 26 6.916666666666667  25.571180555555554 5.9791666666666625  24.713541666666668 5.187500000000002  C 23.85590277777778 4.395833333333329  22.84027777777778 3.9999999999999982  21.666666666666668 3.9999999999999982  C 20.515625 3.9999999999999982  19.505642361111114 4.406249999999999  18.63671875 5.218750000000001  C 17.76779513888889 6.031250000000003  17.333333333333332 6.95833333333333  18 8.000000000000004  L 18 26  C 16.881944444444446 26  16.334635416666668 25.84375  15.69140625 25.53125  C 15.048177083333336 25.21875  14.427517361111112 24.875  13.829427083333332 24.5  C 13.231336805555557 24.125  12.463975694444445 23.78125  11.52734375 23.46875  C 10.590711805555557 23.15625  9.637152777777779 23  8.666666666666666 23  C 7.154513888888888 23  6.054253472222222 23.463541666666664  5.365885416666667 24.390625  C 4.677517361111112 25.317708333333336  4.333333333333333 26.520833333333336  4.333333333333333 28  C 4.333333333333333 28.5  5.901909722222222 29.437499999999996  9.0390625 30.8125  C 10.032118055555557 31.3125  10.765625 31.697916666666664  11.239583333333334 31.96875  C 12.68402777777778 32.802083333333336  14.320312500000004 33.96875  16.1484375 35.46875  C 17.9765625 36.947916666666664  19.172743055555557 38  19.736979166666668 38.625  C 21.0234375 40.0625  21.666666666666668 41.52083333333333  21.666666666666668 43  L 21.666666666666668 44  L 43.333333333333336 44  L 43.333333333333336 43  C 43.333333333333336 41.5  43.69444444444444 39.760416666666664  44.416666666666664 37.78125  C 45.13888888888889 35.80208333333333  45.861111111111114 33.78645833333333  46.583333333333336 31.734374999999996  Z M 49.274739583333336 18.875  C 51.09157986111111 20.66666666666666  52 23.03125  52 25.96875  C 52 28.739583333333332  51.221354166666664 32.09375  49.6640625 36.03125  C 48.33246527777778 39.447916666666664  47.666666666666664 41.77083333333333  47.666666666666664 43  L 47.666666666666664 52  C 47.666666666666664 53.104166666666664  47.243489583333336 54.046875  46.397135416666664 54.828125  C 45.55078125 55.609375  44.52951388888889 56  43.333333333333336 56  L 21.666666666666668 56  C 20.470486111111114 56  19.44921875 55.609375  18.602864583333332 54.828125  C 17.756510416666668 54.046875  17.333333333333332 53.104166666666664  17.333333333333332 52  L 17.333333333333332 43  C 17.333333333333332 42.79166666666666  17.282552083333332 42.567708333333336  17.180989583333332 42.328125  C 17.079427083333332 42.088541666666664  16.92144097222222 41.84375  16.70703125 41.59375  C 16.49262152777778 41.34375  16.28949652777778 41.109375  16.09765625 40.890625  C 15.905815972222223 40.671875  15.651909722222223 40.421875  15.3359375 40.140625  C 15.019965277777777 39.859375  14.77734375 39.64583333333333  14.608072916666668 39.5  C 14.438802083333332 39.354166666666664  14.196180555555557 39.15625  13.880208333333332 38.90625  C 13.564236111111112 38.65625  13.372395833333336 38.510416666666664  13.3046875 38.46875  C 11.63454861111111 37.11458333333333  10.178819444444445 36.072916666666664  8.9375 35.34375  C 8.463541666666668 35.072916666666664  7.76388888888889 34.729166666666664  6.838541666666666 34.3125  C 5.913194444444445 33.89583333333333  5.100694444444445 33.510416666666664  4.401041666666667 33.15625  C 3.7013888888888893 32.802083333333336  2.9904513888888893 32.38020833333333  2.2682291666666665 31.890625  C 1.5460069444444446 31.401041666666664  0.9874131944444445 30.828125000000004  0.5924479166666666 30.171875000000004  C 0.1974826388888889 29.515625000000004  0 28.79166666666666  0 28  C 0 25.395833333333336  0.7560763888888888 23.244791666666664  2.2682291666666665 21.546875  C 3.780381944444444 19.84895833333333  5.913194444444445 19  8.666666666666666 19  C 10.20138888888889 19  11.645833333333334 19.229166666666664  13 19.6875  L 13 8.000000000000004  C 13 5.833333333333331  13.857638888888888 3.9583333333333286  15.572916666666668 2.375000000000001  C 17.288194444444446 0.7916666666666732  19.30815972222222 0  21.6328125 0  C 24.002604166666668 0  26.04513888888889 0.7864583333333348  27.760416666666664 2.3593749999999982  C 29.475694444444446 3.9322916666666616  30.333333333333336 5.812500000000003  30.333333333333336 8.000000000000004  L 30.333333333333336 13.281250000000002  C 31.73263888888889 13.364583333333329  33.075520833333336 13.75  34.361979166666664 14.4375  C 34.8359375 14.375000000000002  35.32118055555556 14.343750000000004  35.817708333333336 14.343750000000004  C 38.09722222222223 14.343750000000004  40.10590277777778 14.968749999999996  41.84375 16.21875  C 44.98090277777778 16.197916666666664  47.45789930555556 17.08333333333333  49.274739583333336 18.875  Z " fill-rule="nonzero" fill="#000000" stroke="none" transform="matrix(1 0 0 1 123 97 )" />
  </g>
</svg>