<?xml version="1.0" encoding="utf-8"?>
<svg version="1.1" xmlns:xlink="http://www.w3.org/1999/xlink" width="30px" height="30px" xmlns="http://www.w3.org/2000/svg">
  <g transform="matrix(1 0 0 1 -70 0 )">
    <path d="M 85 0  C 93.4 0  100 6.6  100 15  C 100 23.400000000000002  93.4 30  85 30  C 76.6 30  70 23.400000000000002  70 15  C 70 6.6  76.6 0  85 0  Z " fill-rule="nonzero" fill="#ffffff" stroke="none" />
    <path d="M 85 0.5  C 93.12 0.5  99.5 6.879999999999999  99.5 15  C 99.5 23.12  93.12 29.5  85 29.5  C 76.88 29.5  70.5 23.12  70.5 15  C 70.5 6.879999999999999  76.88 0.5  85 0.5  Z " stroke-width="1" stroke="#717171" fill="none" />
  </g>
</svg>