<?xml version="1.0" encoding="utf-8"?>
<svg version="1.1" xmlns:xlink="http://www.w3.org/1999/xlink" width="25px" height="22px" xmlns="http://www.w3.org/2000/svg">
  <g>
    <path d="M 24.410774410774412 16.444444444444443  C 24.803591470258137 16.79012345679012  25 17.209876543209873  25 17.703703703703702  C 25 18.19753086419753  24.803591470258137 18.61728395061728  24.410774410774412 18.962962962962962  L 21.548821548821547 21.48148148148148  C 21.156004489337825 21.82716049382716  20.679012345679013 22  20.117845117845118 22  C 19.556677890011226 22  19.079685746352414 21.82716049382716  18.68686868686869 21.48148148148148  L 12.5 16.037037037037038  L 6.313131313131313 21.48148148148148  C 5.920314253647588 21.82716049382716  5.4433221099887765 22  4.882154882154882 22  C 4.320987654320988 22  3.843995510662178 21.82716049382716  3.4511784511784516 21.48148148148148  L 0.5892255892255892 18.962962962962962  C 0.19640852974186326 18.61728395061728  0 18.19753086419753  0 17.703703703703702  C 0 17.209876543209873  0.19640852974186326 16.79012345679012  0.5892255892255892 16.444444444444443  L 6.776094276094276 11  L 0.5892255892255892 5.5555555555555545  C 0.19640852974186326 5.209876543209875  0 4.790123456790123  0 4.296296296296296  C 0 3.802469135802469  0.19640852974186326 3.382716049382713  0.5892255892255892 3.037037037037038  L 3.4511784511784516 0.5185185185185186  C 3.843995510662178 0.17283950617283872  4.320987654320988 0  4.882154882154882 0  C 5.4433221099887765 0  5.920314253647588 0.17283950617283872  6.313131313131313 0.5185185185185186  L 12.5 5.962962962962964  L 18.68686868686869 0.5185185185185186  C 19.079685746352414 0.17283950617283872  19.556677890011226 0  20.117845117845118 0  C 20.679012345679013 0  21.156004489337825 0.17283950617283872  21.548821548821547 0.5185185185185186  L 24.410774410774412 3.037037037037038  C 24.803591470258137 3.382716049382713  25 3.802469135802469  25 4.296296296296296  C 25 4.790123456790123  24.803591470258137 5.209876543209875  24.410774410774412 5.5555555555555545  L 18.223905723905723 11  L 24.410774410774412 16.444444444444443  Z " fill-rule="nonzero" fill="#ffffff" stroke="none" />
  </g>
</svg>