<?xml version="1.0" encoding="utf-8"?>
<svg version="1.1" xmlns:xlink="http://www.w3.org/1999/xlink" width="20px" height="13px" xmlns="http://www.w3.org/2000/svg">
  <g transform="matrix(1 0 0 1 -185 -5 )">
    <path d="M 19.799599198396805 1.34020618556701  C 19.933199732798926 1.4891179839633413  20 1.660366552119128  20 1.8539518900343648  C 20 2.047537227949597  19.933199732798926 2.218785796105381  19.799599198396805 2.3676975945017187  L 10.460921843687373 12.776632302405496  C 10.327321309285253 12.92554410080183  10.173680694722776 13  10 13  C 9.826319305277224 13  9.672678690714775 12.92554410080183  9.539078156312627 12.776632302405496  L 0.20040080160319462 2.3676975945017187  C 0.06680026720107435 2.218785796105381  0 2.047537227949597  0 1.8539518900343648  C 0 1.660366552119128  0.06680026720107435 1.4891179839633413  0.20040080160319462 1.34020618556701  L 1.2024048096192246 0.22336769759450267  C 1.3360053440213733 0.0744558991981652  1.4896459585838215 0  1.6633266533066262 0  C 1.8370073480294025 0  1.9906479625918507 0.0744558991981652  2.1242484969939994 0.22336769759450267  L 7.1189368336331995 5.790471347040981  L 10 9.00171821305842  L 17.875751503006 0.22336769759450267  C 18.00935203740815 0.0744558991981652  18.162992651970598 0  18.336673346693374 0  C 18.51035404141618 0  18.663994655978627 0.0744558991981652  18.797595190380775 0.22336769759450267  L 19.799599198396805 1.34020618556701  Z " fill-rule="nonzero" fill="#ffffff" stroke="none" transform="matrix(1 0 0 1 185 5 )" />
  </g>
</svg>