<?xml version="1.0" encoding="utf-8"?>
<svg version="1.1" xmlns:xlink="http://www.w3.org/1999/xlink" width="26px" height="23px" xmlns="http://www.w3.org/2000/svg">
  <g transform="matrix(1 0 0 1 0 -7 )">
    <path d="M 10.026988636363637 19.862955729166668  C 10.076231060606062 20.3271484375  10.150094696969699 20.659071180555557  10.248579545454545 20.858723958333332  C 11.159564393939394 21.178168402777775  12.021306818181818 21.337890625  12.833806818181818 21.337890625  C 17.4625946969697 21.337890625  19.776988636363637 19.66579861111111  19.776988636363637 16.321614583333336  C 19.776988636363637 15.18359375  19.524621212121215 14.28515625  19.019886363636363 13.626302083333336  C 18.6875 13.187065972222221  18.308948863636363 12.817708333333336  17.884232954545453 12.518229166666664  C 17.459517045454547 12.21875  17.04403409090909 11.986653645833336  16.63778409090909 11.821940104166664  C 16.23153409090909 11.6572265625  15.736032196969699 11.532443576388886  15.15127840909091 11.447591145833332  C 14.566524621212123 11.362738715277775  14.049479166666668 11.31032986111111  13.600142045454545 11.290364583333332  C 13.150804924242426 11.270399305555554  12.569128787878789 11.260416666666668  11.855113636363637 11.260416666666668  C 10.956439393939394 11.260416666666668  10.334753787878789 11.31032986111111  9.990056818181818 11.41015625  C 9.990056818181818 11.939236111111109  9.986979166666668 12.732855902777779  9.980823863636363 13.791015625  C 9.974668560606062 14.849175347222221  9.97159090909091 15.637803819444443  9.97159090909091 16.156901041666664  C 9.97159090909091 16.23676215277778  9.965435606060607 16.57367621527778  9.953125 17.167643229166664  C 9.940814393939394 17.761610243055557  9.937736742424244 18.243272569444443  9.943892045454545 18.612630208333332  C 9.95004734848485 18.981987847222225  9.977746212121213 19.398763020833332  10.026988636363637 19.862955729166668  Z M 9.97159090909091 8.654947916666668  C 9.97159090909091 9.114149305555554  9.977746212121213 9.458550347222221  9.990056818181818 9.688151041666668  C 10.507102272727273 9.75802951388889  11.178030303030303 9.79296875  12.00284090909091 9.79296875  C 13.012310606060606 9.79296875  13.89251893939394 9.728081597222221  14.64346590909091 9.598307291666668  C 15.39441287878788 9.46853298611111  16.07149621212121 9.246419270833332  16.67471590909091 8.931966145833332  C 17.277935606060606 8.617513020833332  17.73650568181818 8.170789930555554  18.050426136363637 7.591796875  C 18.36434659090909 7.012803819444443  18.52130681818182 6.304036458333332  18.52130681818182 5.465494791666668  C 18.52130681818182 4.766710069444443  18.34280303030303 4.1552734375  17.985795454545453 3.6311848958333326  C 17.62878787878788 3.1070963541666674  17.14251893939394 2.697808159722219  16.526988636363637 2.4033203125  C 15.911458333333336 2.108832465277776  15.246685606060606 1.8917100694444433  14.532670454545455 1.751953125  C 13.818655303030303 1.612196180555554  13.055397727272727 1.5423177083333326  12.242897727272727 1.5423177083333326  C 11.627367424242426 1.5423177083333326  10.827178030303031 1.6072048611111107  9.842329545454545 1.7369791666666674  C 9.842329545454545 2.2361111111111107  9.866950757575758 2.989800347222219  9.916193181818182 3.998046875  C 9.965435606060607 5.006293402777776  9.990056818181818 5.764973958333332  9.990056818181818 6.274088541666668  C 9.990056818181818 6.543619791666668  9.986979166666668 6.942925347222219  9.980823863636363 7.472005208333332  C 9.974668560606062 8.001085069444443  9.97159090909091 8.395399305555554  9.97159090909091 8.654947916666668  Z M 4.265625 22.8203125  C 1.7911931818181819 22.930121527777775  0.3693181818181819 22.99001736111111  0 23  L 0.036931818181818184 21.592447916666668  C 0.22159090909090906 21.55251736111111  0.7447916666666667 21.47265625  1.6065340909090908 21.352864583333332  C 2.4682765151515156 21.233072916666668  3.1207386363636362 21.098307291666668  3.563920454545455 20.948567708333332  C 3.6500946969696977 20.828776041666668  3.727035984848485 20.694010416666668  3.7947443181818183 20.544270833333332  C 3.8624526515151514 20.39453125  3.9147727272727275 20.22732204861111  3.951704545454545 20.042643229166668  C 3.9886363636363638 19.857964409722225  4.02249053030303 19.695746527777775  4.053267045454545 19.555989583333332  C 4.084043560606061 19.41623263888889  4.10250946969697 19.229058159722225  4.1086647727272725 18.994466145833332  C 4.114820075757576 18.759874131944443  4.1178977272727275 18.590169270833332  4.1178977272727275 18.4853515625  L 4.1178977272727275 17.953776041666668  L 4.1178977272727275 17.504557291666668  C 4.1178977272727275 7.701605902777776  3.9824810606060614 2.585503472222219  3.7116477272727275 2.15625  C 3.662405303030303 2.0763888888888866  3.5269886363636362 2.0040147569444433  3.3053977272727275 1.9391276041666674  C 3.0838068181818183 1.8742404513888866  2.809895833333334 1.8193359375  2.4836647727272725 1.7744140625  C 2.1574337121212124 1.7294921875  1.8527462121212124 1.6945529513888866  1.5696022727272727 1.6695963541666674  C 1.2864583333333335 1.6446397569444433  0.9879261363636362 1.6221788194444433  0.6740056818181819 1.6022135416666674  C 0.3600852272727273 1.5822482638888866  0.17234848484848486 1.567274305555554  0.11079545454545453 1.5572916666666674  L 0.036931818181818184 0.314453125  C 1.2433712121212124 0.2944878472222191  3.3361742424242427 0.23708767361111083  6.315340909090909 0.14225260416666752  C 9.294507575757576 0.0474175347222191  11.590435606060607 0  13.203125 0  C 13.48626893939394 0  13.904829545454545 0.0024956597222191013  14.45880681818182 0.007486979166667518  C 15.012784090909093 0.012478298611110827  15.431344696969699 0.014973958333332482  15.714488636363635 0.014973958333332482  C 16.576231060606062 0.014973958333332482  17.416429924242426 0.07986111111111083  18.235085227272727 0.20963541666666752  C 19.05374053030303 0.3394097222222191  19.844696969696972 0.5490451388888866  20.607954545454547 0.8385416666666675  C 21.371212121212125 1.1280381944444433  22.03598484848485 1.482421875  22.602272727272727 1.9016927083333326  C 23.168560606060606 2.3209635416666674  23.62405303030303 2.8425564236111107  23.96875 3.4664713541666674  C 24.313446969696972 4.090386284722219  24.485795454545453 4.776692708333332  24.485795454545453 5.525390625  C 24.485795454545453 6.044487847222219  24.384232954545453 6.521158854166668  24.181107954545453 6.955403645833332  C 23.977982954545453 7.3896484375  23.737926136363637 7.749023437499997  23.4609375 8.033528645833332  C 23.183948863636363 8.318033854166664  22.78693181818182 8.60503472222222  22.269886363636363 8.89453125  C 21.75284090909091 9.184027777777775  21.30350378787879 9.408637152777775  20.921875 9.568359375  C 20.540246212121215 9.728081597222221  20.02320075757576 9.927734375  19.370738636363637 10.167317708333332  C 21.266571969696972 10.516710069444443  22.8454071969697 11.185546875  24.10724431818182 12.173828125  C 25.36908143939394 13.162109375  26 14.399956597222221  26 15.887369791666664  C 26 16.88563368055555  25.784564393939398 17.781575520833332  25.35369318181818 18.5751953125  C 24.922821969696972 19.368815104166668  24.347301136363637 20.020182291666668  23.62713068181818 20.529296875  C 22.906960227272727 21.038411458333332  22.05752840909091 21.465169270833332  21.078835227272727 21.8095703125  C 20.100142045454547 22.153971354166668  19.09375 22.396050347222225  18.05965909090909 22.535807291666668  C 17.025568181818183 22.67556423611111  15.942234848484851 22.745442708333332  14.80965909090909 22.745442708333332  C 14.267992424242426 22.745442708333332  13.455492424242426 22.73046875  12.37215909090909 22.700520833333332  C 11.288825757575758 22.670572916666668  10.476325757575758 22.655598958333332  9.93465909090909 22.655598958333332  C 8.62973484848485 22.655598958333332  6.740056818181819 22.710503472222225  4.265625 22.8203125  Z " fill-rule="nonzero" fill="#f2f2f2" stroke="none" transform="matrix(1 0 0 1 0 7 )" />
  </g>
</svg>