<?xml version="1.0" encoding="utf-8"?>
<svg version="1.1" xmlns:xlink="http://www.w3.org/1999/xlink" width="28px" height="27px" xmlns="http://www.w3.org/2000/svg">
  <g transform="matrix(1 0 0 1 -172 -2 )">
    <path d="M 14 20.91796875  C 14.315972222222221 20.91796875  14.589409722222221 20.806640625000004  14.8203125 20.583984375  L 23.096354166666664 12.603515625  C 23.327256944444446 12.380859375  23.442708333333336 12.1171875  23.442708333333336 11.8125  C 23.442708333333336 11.5078125  23.327256944444446 11.244140625  23.096354166666664 11.021484375  L 21.236979166666664 9.228515625  C 21.00607638888889 9.005859375  20.73263888888889 8.894531250000002  20.416666666666664 8.894531250000002  C 20.100694444444446 8.894531250000002  19.827256944444446 9.005859375  19.596354166666664 9.228515625  L 14 14.625000000000002  L 8.403645833333332 9.228515625  C 8.172743055555557 9.005859375  7.899305555555556 8.894531250000002  7.583333333333333 8.894531250000002  C 7.2673611111111125 8.894531250000002  6.9939236111111125 9.005859375  6.763020833333334 9.228515625  L 4.903645833333334 11.021484375  C 4.672743055555556 11.244140625  4.557291666666666 11.5078125  4.557291666666666 11.8125  C 4.557291666666666 12.1171875  4.672743055555556 12.380859375  4.903645833333334 12.603515625  L 13.1796875 20.583984375  C 13.41059027777778 20.806640625000004  13.68402777777778 20.91796875  14 20.91796875  Z M 26.122395833333336 6.7236328125  C 27.37413194444444 8.791992187499996  28 11.050781249999996  28 13.5  C 28 15.94921875  27.37413194444444 18.208007812499996  26.122395833333336 20.2763671875  C 24.870659722222225 22.3447265625  23.17230902777778 23.982421875  21.02734375 25.189453125  C 18.882378472222225 26.396484375000004  16.539930555555557 27  14 27  C 11.460069444444445 27  9.117621527777779 26.396484375000004  6.97265625 25.189453125  C 4.827690972222222 23.982421875  3.129340277777778 22.3447265625  1.8776041666666667 20.2763671875  C 0.6258680555555555 18.208007812499996  0 15.94921875  0 13.5  C 0 11.050781249999996  0.6258680555555555 8.791992187499996  1.8776041666666667 6.7236328125  C 3.129340277777778 4.6552734375  4.827690972222222 3.0175781249999973  6.97265625 1.8105468749999991  C 9.117621527777779 0.6035156249999977  11.460069444444445 0  14 0  C 16.539930555555557 0  18.882378472222225 0.6035156249999977  21.02734375 1.8105468749999991  C 23.17230902777778 3.0175781249999973  24.870659722222225 4.6552734375  26.122395833333336 6.7236328125  Z " fill-rule="nonzero" fill="#000000" stroke="none" transform="matrix(1 0 0 1 172 2 )" />
  </g>
</svg>