<?xml version="1.0" encoding="utf-8"?>
<svg version="1.1" xmlns:xlink="http://www.w3.org/1999/xlink" width="212px" height="6px" xmlns="http://www.w3.org/2000/svg">
  <g transform="matrix(1 0 0 1 -47 -77 )">
    <path d="M 49 80  A 1 1 0 0 1 50 79 L 256 79  A 1 1 0 0 1 257 80 A 1 1 0 0 1 256 81 L 50 81  A 1 1 0 0 1 49 80 Z " fill-rule="nonzero" fill="#1e98d7" stroke="none" fill-opacity="0.25098039215686274" />
    <path d="M 48 80  A 2 2 0 0 1 50 78 L 256 78  A 2 2 0 0 1 258 80 A 2 2 0 0 1 256 82 L 50 82  A 2 2 0 0 1 48 80 Z " stroke-width="2" stroke="#1e98d7" fill="none" stroke-opacity="0.25098039215686274" />
  </g>
</svg>