<?xml version="1.0" encoding="utf-8"?>
<svg version="1.1" xmlns:xlink="http://www.w3.org/1999/xlink" width="88px" height="30px" xmlns="http://www.w3.org/2000/svg">
  <defs>
    <mask fill="white" id="clip12">
      <path d="M 10.3125 30  C 4.537500000000016 30  0 23.400000000000006  0 15  C 0 6.600000000000001  4.537500000000016 0  10.3125 0  L 62.5625 0  L 77.6875 0  C 83.46249999999998 0  88 6.600000000000001  88 15  C 88 23.400000000000006  83.46249999999998 30  77.6875 30  L 10.3125 30  Z " fill-rule="evenodd" />
    </mask>
  </defs>
  <g transform="matrix(1 0 0 1 -313 -44 )">
    <path d="M 10.3125 30  C 4.537500000000016 30  0 23.400000000000006  0 15  C 0 6.600000000000001  4.537500000000016 0  10.3125 0  L 62.5625 0  L 77.6875 0  C 83.46249999999998 0  88 6.600000000000001  88 15  C 88 23.400000000000006  83.46249999999998 30  77.6875 30  L 10.3125 30  Z " fill-rule="nonzero" fill="#ffffff" stroke="none" fill-opacity="0" transform="matrix(1 0 0 1 313 44 )" />
    <path d="M 10.3125 30  C 4.537500000000016 30  0 23.400000000000006  0 15  C 0 6.600000000000001  4.537500000000016 0  10.3125 0  L 62.5625 0  L 77.6875 0  C 83.46249999999998 0  88 6.600000000000001  88 15  C 88 23.400000000000006  83.46249999999998 30  77.6875 30  L 10.3125 30  Z " stroke-width="2" stroke="#f2f2f2" fill="none" transform="matrix(1 0 0 1 313 44 )" mask="url(#clip12)" />
  </g>
</svg>