<?xml version="1.0" encoding="utf-8"?>
<svg version="1.1" xmlns:xlink="http://www.w3.org/1999/xlink" width="126px" height="30px" xmlns="http://www.w3.org/2000/svg">
  <defs>
    <mask fill="white" id="clip13">
      <path d="M 14.765625 30  C 6.496875000000022 30  0 23.400000000000006  0 15  C 0 6.600000000000001  6.496875000000022 0  14.765625 0  L 89.578125 0  L 111.234375 0  C 119.50312499999998 0  126 6.600000000000001  126 15  C 126 23.400000000000006  119.50312499999998 30  111.234375 30  L 14.765625 30  Z " fill-rule="evenodd" />
    </mask>
  </defs>
  <g transform="matrix(1 0 0 1 -513 -44 )">
    <path d="M 14.765625 30  C 6.496875000000022 30  0 23.400000000000006  0 15  C 0 6.600000000000001  6.496875000000022 0  14.765625 0  L 89.578125 0  L 111.234375 0  C 119.50312499999998 0  126 6.600000000000001  126 15  C 126 23.400000000000006  119.50312499999998 30  111.234375 30  L 14.765625 30  Z " fill-rule="nonzero" fill="#ffffff" stroke="none" fill-opacity="0" transform="matrix(1 0 0 1 513 44 )" />
    <path d="M 14.765625 30  C 6.496875000000022 30  0 23.400000000000006  0 15  C 0 6.600000000000001  6.496875000000022 0  14.765625 0  L 89.578125 0  L 111.234375 0  C 119.50312499999998 0  126 6.600000000000001  126 15  C 126 23.400000000000006  119.50312499999998 30  111.234375 30  L 14.765625 30  Z " stroke-width="2" stroke="#f2f2f2" fill="none" transform="matrix(1 0 0 1 513 44 )" mask="url(#clip13)" />
  </g>
</svg>