<?xml version="1.0" encoding="utf-8"?>
<svg version="1.1" xmlns:xlink="http://www.w3.org/1999/xlink" width="105px" height="30px" xmlns="http://www.w3.org/2000/svg">
  <defs>
    <mask fill="white" id="clip14">
      <path d="M 12.3046875 30  C 5.414062500000019 30  0 23.400000000000006  0 15  C 0 6.600000000000001  5.414062500000019 0  12.3046875 0  L 74.6484375 0  L 92.6953125 0  C 99.58593749999999 0  105 6.600000000000001  105 15  C 105 23.400000000000006  99.58593749999999 30  92.6953125 30  L 12.3046875 30  Z " fill-rule="evenodd" />
    </mask>
  </defs>
  <g transform="matrix(1 0 0 1 -631 0 )">
    <path d="M 12.3046875 30  C 5.414062500000019 30  0 23.400000000000006  0 15  C 0 6.600000000000001  5.414062500000019 0  12.3046875 0  L 74.6484375 0  L 92.6953125 0  C 99.58593749999999 0  105 6.600000000000001  105 15  C 105 23.400000000000006  99.58593749999999 30  92.6953125 30  L 12.3046875 30  Z " fill-rule="nonzero" fill="#ffffff" stroke="none" fill-opacity="0" transform="matrix(1 0 0 1 631 0 )" />
    <path d="M 12.3046875 30  C 5.414062500000019 30  0 23.400000000000006  0 15  C 0 6.600000000000001  5.414062500000019 0  12.3046875 0  L 74.6484375 0  L 92.6953125 0  C 99.58593749999999 0  105 6.600000000000001  105 15  C 105 23.400000000000006  99.58593749999999 30  92.6953125 30  L 12.3046875 30  Z " stroke-width="2" stroke="#f2f2f2" fill="none" transform="matrix(1 0 0 1 631 0 )" mask="url(#clip14)" />
  </g>
</svg>