<?xml version="1.0" encoding="utf-8"?>
<svg version="1.1" xmlns:xlink="http://www.w3.org/1999/xlink" width="81px" height="30px" xmlns="http://www.w3.org/2000/svg">
  <defs>
    <mask fill="white" id="clip15">
      <path d="M 9.4921875 30  C 4.176562500000014 30  0 23.400000000000006  0 15  C 0 6.600000000000001  4.176562500000014 0  9.4921875 0  L 57.5859375 0  L 71.5078125 0  C 76.82343749999998 0  81 6.600000000000001  81 15  C 81 23.400000000000006  76.82343749999998 30  71.5078125 30  L 9.4921875 30  Z " fill-rule="evenodd" />
    </mask>
  </defs>
  <g transform="matrix(1 0 0 1 -751 0 )">
    <path d="M 9.4921875 30  C 4.176562500000014 30  0 23.400000000000006  0 15  C 0 6.600000000000001  4.176562500000014 0  9.4921875 0  L 57.5859375 0  L 71.5078125 0  C 76.82343749999998 0  81 6.600000000000001  81 15  C 81 23.400000000000006  76.82343749999998 30  71.5078125 30  L 9.4921875 30  Z " fill-rule="nonzero" fill="#ffffff" stroke="none" fill-opacity="0" transform="matrix(1 0 0 1 751 0 )" />
    <path d="M 9.4921875 30  C 4.176562500000014 30  0 23.400000000000006  0 15  C 0 6.600000000000001  4.176562500000014 0  9.4921875 0  L 57.5859375 0  L 71.5078125 0  C 76.82343749999998 0  81 6.600000000000001  81 15  C 81 23.400000000000006  76.82343749999998 30  71.5078125 30  L 9.4921875 30  Z " stroke-width="2" stroke="#f2f2f2" fill="none" transform="matrix(1 0 0 1 751 0 )" mask="url(#clip15)" />
  </g>
</svg>