<?xml version="1.0" encoding="utf-8"?>
<svg version="1.1" xmlns:xlink="http://www.w3.org/1999/xlink" width="101px" height="30px" xmlns="http://www.w3.org/2000/svg">
  <defs>
    <mask fill="white" id="clip16">
      <path d="M 11.8359375 30  C 5.207812500000018 30  0 23.400000000000006  0 15  C 0 6.600000000000001  5.207812500000018 0  11.8359375 0  L 71.8046875 0  L 89.1640625 0  C 95.79218749999998 0  101 6.600000000000001  101 15  C 101 23.400000000000006  95.79218749999998 30  89.1640625 30  L 11.8359375 30  Z " fill-rule="evenodd" />
    </mask>
  </defs>
  <g transform="matrix(1 0 0 1 -763 -44 )">
    <path d="M 11.8359375 30  C 5.207812500000018 30  0 23.400000000000006  0 15  C 0 6.600000000000001  5.207812500000018 0  11.8359375 0  L 71.8046875 0  L 89.1640625 0  C 95.79218749999998 0  101 6.600000000000001  101 15  C 101 23.400000000000006  95.79218749999998 30  89.1640625 30  L 11.8359375 30  Z " fill-rule="nonzero" fill="#ffffff" stroke="none" fill-opacity="0" transform="matrix(1 0 0 1 763 44 )" />
    <path d="M 11.8359375 30  C 5.207812500000018 30  0 23.400000000000006  0 15  C 0 6.600000000000001  5.207812500000018 0  11.8359375 0  L 71.8046875 0  L 89.1640625 0  C 95.79218749999998 0  101 6.600000000000001  101 15  C 101 23.400000000000006  95.79218749999998 30  89.1640625 30  L 11.8359375 30  Z " stroke-width="2" stroke="#f2f2f2" fill="none" transform="matrix(1 0 0 1 763 44 )" mask="url(#clip16)" />
  </g>
</svg>