<?xml version="1.0" encoding="utf-8"?>
<svg version="1.1" xmlns:xlink="http://www.w3.org/1999/xlink" width="83px" height="30px" xmlns="http://www.w3.org/2000/svg">
  <defs>
    <mask fill="white" id="clip17">
      <path d="M 9.7265625 30  C 4.279687500000015 30  0 23.400000000000006  0 15  C 0 6.600000000000001  4.279687500000015 0  9.7265625 0  L 59.0078125 0  L 73.2734375 0  C 78.72031249999999 0  83 6.600000000000001  83 15  C 83 23.400000000000006  78.72031249999999 30  73.2734375 30  L 9.7265625 30  Z " fill-rule="evenodd" />
    </mask>
  </defs>
  <g transform="matrix(1 0 0 1 -1050 -44 )">
    <path d="M 9.7265625 30  C 4.279687500000015 30  0 23.400000000000006  0 15  C 0 6.600000000000001  4.279687500000015 0  9.7265625 0  L 59.0078125 0  L 73.2734375 0  C 78.72031249999999 0  83 6.600000000000001  83 15  C 83 23.400000000000006  78.72031249999999 30  73.2734375 30  L 9.7265625 30  Z " fill-rule="nonzero" fill="#ffffff" stroke="none" fill-opacity="0" transform="matrix(1 0 0 1 1050 44 )" />
    <path d="M 9.7265625 30  C 4.279687500000015 30  0 23.400000000000006  0 15  C 0 6.600000000000001  4.279687500000015 0  9.7265625 0  L 59.0078125 0  L 73.2734375 0  C 78.72031249999999 0  83 6.600000000000001  83 15  C 83 23.400000000000006  78.72031249999999 30  73.2734375 30  L 9.7265625 30  Z " stroke-width="2" stroke="#f2f2f2" fill="none" transform="matrix(1 0 0 1 1050 44 )" mask="url(#clip17)" />
  </g>
</svg>