<?xml version="1.0" encoding="utf-8"?>
<svg version="1.1" xmlns:xlink="http://www.w3.org/1999/xlink" width="146px" height="30px" xmlns="http://www.w3.org/2000/svg">
  <defs>
    <mask fill="white" id="clip18">
      <path d="M 17.109375 30  C 7.528125000000026 30  0 23.400000000000006  0 15  C 0 6.600000000000001  7.528125000000026 0  17.109375 0  L 103.796875 0  L 128.890625 0  C 138.47187499999998 0  146 6.600000000000001  146 15  C 146 23.400000000000006  138.47187499999998 30  128.890625 30  L 17.109375 30  Z " fill-rule="evenodd" />
    </mask>
  </defs>
  <g transform="matrix(1 0 0 1 -1125 0 )">
    <path d="M 17.109375 30  C 7.528125000000026 30  0 23.400000000000006  0 15  C 0 6.600000000000001  7.528125000000026 0  17.109375 0  L 103.796875 0  L 128.890625 0  C 138.47187499999998 0  146 6.600000000000001  146 15  C 146 23.400000000000006  138.47187499999998 30  128.890625 30  L 17.109375 30  Z " fill-rule="nonzero" fill="#ffffff" stroke="none" fill-opacity="0" transform="matrix(1 0 0 1 1125 0 )" />
    <path d="M 17.109375 30  C 7.528125000000026 30  0 23.400000000000006  0 15  C 0 6.600000000000001  7.528125000000026 0  17.109375 0  L 103.796875 0  L 128.890625 0  C 138.47187499999998 0  146 6.600000000000001  146 15  C 146 23.400000000000006  138.47187499999998 30  128.890625 30  L 17.109375 30  Z " stroke-width="2" stroke="#f2f2f2" fill="none" transform="matrix(1 0 0 1 1125 0 )" mask="url(#clip18)" />
  </g>
</svg>