<?xml version="1.0" encoding="utf-8"?>
<svg version="1.1" xmlns:xlink="http://www.w3.org/1999/xlink" width="106px" height="30px" xmlns="http://www.w3.org/2000/svg">
  <defs>
    <mask fill="white" id="clip19">
      <path d="M 12.421875 30  C 5.465625000000019 30  0 23.400000000000006  0 15  C 0 6.600000000000001  5.465625000000019 0  12.421875 0  L 75.359375 0  L 93.578125 0  C 100.53437499999998 0  106 6.600000000000001  106 15  C 106 23.400000000000006  100.53437499999998 30  93.578125 30  L 12.421875 30  Z " fill-rule="evenodd" />
    </mask>
  </defs>
  <g transform="matrix(1 0 0 1 -1282 0 )">
    <path d="M 12.421875 30  C 5.465625000000019 30  0 23.400000000000006  0 15  C 0 6.600000000000001  5.465625000000019 0  12.421875 0  L 75.359375 0  L 93.578125 0  C 100.53437499999998 0  106 6.600000000000001  106 15  C 106 23.400000000000006  100.53437499999998 30  93.578125 30  L 12.421875 30  Z " fill-rule="nonzero" fill="#ffffff" stroke="none" fill-opacity="0" transform="matrix(1 0 0 1 1282 0 )" />
    <path d="M 12.421875 30  C 5.465625000000019 30  0 23.400000000000006  0 15  C 0 6.600000000000001  5.465625000000019 0  12.421875 0  L 75.359375 0  L 93.578125 0  C 100.53437499999998 0  106 6.600000000000001  106 15  C 106 23.400000000000006  100.53437499999998 30  93.578125 30  L 12.421875 30  Z " stroke-width="2" stroke="#f2f2f2" fill="none" transform="matrix(1 0 0 1 1282 0 )" mask="url(#clip19)" />
  </g>
</svg>