<?xml version="1.0" encoding="utf-8"?>
<svg version="1.1" xmlns:xlink="http://www.w3.org/1999/xlink" width="45px" height="30px" xmlns="http://www.w3.org/2000/svg">
  <defs>
    <mask fill="white" id="clip20">
      <path d="M 5.2734375 30  C 2.320312500000008 30  0 23.400000000000006  0 15  C 0 6.600000000000001  2.320312500000008 0  5.2734375 0  L 31.9921875 0  L 39.7265625 0  C 42.67968749999999 0  45 6.600000000000001  45 15  C 45 23.400000000000006  42.67968749999999 30  39.7265625 30  L 5.2734375 30  Z " fill-rule="evenodd" />
    </mask>
  </defs>
  <g transform="matrix(1 0 0 1 -1297 -44 )">
    <path d="M 5.2734375 30  C 2.320312500000008 30  0 23.400000000000006  0 15  C 0 6.600000000000001  2.320312500000008 0  5.2734375 0  L 31.9921875 0  L 39.7265625 0  C 42.67968749999999 0  45 6.600000000000001  45 15  C 45 23.400000000000006  42.67968749999999 30  39.7265625 30  L 5.2734375 30  Z " fill-rule="nonzero" fill="#ffffff" stroke="none" fill-opacity="0" transform="matrix(1 0 0 1 1297 44 )" />
    <path d="M 5.2734375 30  C 2.320312500000008 30  0 23.400000000000006  0 15  C 0 6.600000000000001  2.320312500000008 0  5.2734375 0  L 31.9921875 0  L 39.7265625 0  C 42.67968749999999 0  45 6.600000000000001  45 15  C 45 23.400000000000006  42.67968749999999 30  39.7265625 30  L 5.2734375 30  Z " stroke-width="2" stroke="#f2f2f2" fill="none" transform="matrix(1 0 0 1 1297 44 )" mask="url(#clip20)" />
  </g>
</svg>