<?xml version="1.0" encoding="utf-8"?>
<svg version="1.1" xmlns:xlink="http://www.w3.org/1999/xlink" width="95px" height="30px" xmlns="http://www.w3.org/2000/svg">
  <defs>
    <mask fill="white" id="clip21">
      <path d="M 11.1328125 30  C 4.898437500000017 30  0 23.400000000000006  0 15  C 0 6.600000000000001  4.898437500000017 0  11.1328125 0  L 67.5390625 0  L 83.8671875 0  C 90.10156249999999 0  95 6.600000000000001  95 15  C 95 23.400000000000006  90.10156249999999 30  83.8671875 30  L 11.1328125 30  Z " fill-rule="evenodd" />
    </mask>
  </defs>
  <g transform="matrix(1 0 0 1 -1353 -44 )">
    <path d="M 11.1328125 30  C 4.898437500000017 30  0 23.400000000000006  0 15  C 0 6.600000000000001  4.898437500000017 0  11.1328125 0  L 67.5390625 0  L 83.8671875 0  C 90.10156249999999 0  95 6.600000000000001  95 15  C 95 23.400000000000006  90.10156249999999 30  83.8671875 30  L 11.1328125 30  Z " fill-rule="nonzero" fill="#ffffff" stroke="none" fill-opacity="0" transform="matrix(1 0 0 1 1353 44 )" />
    <path d="M 11.1328125 30  C 4.898437500000017 30  0 23.400000000000006  0 15  C 0 6.600000000000001  4.898437500000017 0  11.1328125 0  L 67.5390625 0  L 83.8671875 0  C 90.10156249999999 0  95 6.600000000000001  95 15  C 95 23.400000000000006  90.10156249999999 30  83.8671875 30  L 11.1328125 30  Z " stroke-width="2" stroke="#f2f2f2" fill="none" transform="matrix(1 0 0 1 1353 44 )" mask="url(#clip21)" />
  </g>
</svg>