<?xml version="1.0" encoding="utf-8"?>
<svg version="1.1" xmlns:xlink="http://www.w3.org/1999/xlink" width="27px" height="28px" xmlns="http://www.w3.org/2000/svg">
  <g transform="matrix(1 0 0 1 -172 -146 )">
    <path d="M 19.6875 18.776041666666668  C 19.9921875 18.776041666666668  20.255859375 18.660590277777775  20.478515625 18.4296875  L 22.271484375 16.5703125  C 22.494140625000004 16.339409722222218  22.60546875 16.065972222222218  22.60546875 15.75  C 22.60546875 15.434027777777775  22.494140625000004 15.160590277777775  22.271484375 14.9296875  L 14.291015625 6.653645833333334  C 14.068359375 6.422743055555554  13.8046875 6.307291666666666  13.5 6.307291666666666  C 13.195312500000002 6.307291666666666  12.931640625000002 6.422743055555554  12.708984375 6.653645833333334  L 4.728515625 14.9296875  C 4.505859375000001 15.160590277777775  4.39453125 15.434027777777775  4.39453125 15.75  C 4.39453125 16.065972222222218  4.505859375000001 16.339409722222218  4.728515625 16.5703125  L 6.521484375 18.4296875  C 6.744140625000002 18.660590277777775  7.007812500000002 18.776041666666668  7.312499999999999 18.776041666666668  C 7.617187500000001 18.776041666666668  7.880859375000001 18.660590277777775  8.103515625 18.4296875  L 13.5 12.833333333333334  L 18.896484375 18.4296875  C 19.119140625000004 18.660590277777775  19.382812500000004 18.776041666666668  19.6875 18.776041666666668  Z M 25.189453125 6.97265625  C 26.396484374999996 9.117621527777775  27 11.460069444444441  27 14  C 27 16.539930555555557  26.396484374999996 18.882378472222218  25.189453125 21.02734375  C 23.982421875000004 23.17230902777778  22.3447265625 24.87065972222222  20.2763671875 26.122395833333336  C 18.208007812500004 27.374131944444446  15.94921875 28  13.5 28  C 11.05078125 28  8.7919921875 27.374131944444446  6.7236328125 26.122395833333336  C 4.6552734375 24.87065972222222  3.0175781250000004 23.17230902777778  1.8105468750000002 21.02734375  C 0.6035156249999999 18.882378472222218  0 16.539930555555557  0 14  C 0 11.460069444444441  0.6035156249999999 9.117621527777775  1.8105468750000002 6.97265625  C 3.0175781250000004 4.827690972222221  4.6552734375 3.129340277777775  6.7236328125 1.8776041666666656  C 8.7919921875 0.6258680555555531  11.05078125 0  13.5 0  C 15.94921875 0  18.208007812500004 0.6258680555555531  20.2763671875 1.8776041666666656  C 22.3447265625 3.129340277777775  23.982421875000004 4.827690972222221  25.189453125 6.97265625  Z " fill-rule="nonzero" fill="#000000" stroke="none" transform="matrix(1 0 0 1 172 146 )" />
  </g>
</svg>