<?xml version="1.0" encoding="utf-8"?>
<svg version="1.1" xmlns:xlink="http://www.w3.org/1999/xlink" width="21px" height="18px" xmlns="http://www.w3.org/2000/svg">
  <g transform="matrix(1 0 0 1 -88 -679 )">
    <path d="M 13.876953125 14.89453125  C 13.958984375 14.82421875  14 14.734375  14 14.625  L 14 12.749999999999998  C 14 12.640625  13.958984375 12.55078125  13.876953125 12.48046875  C 13.794921875 12.41015625  13.690104166666666 12.375  13.5625 12.375  L 12.25 12.375  L 12.25 6.374999999999999  C 12.25 6.265625  12.208984375 6.175781250000001  12.126953125 6.105468750000001  C 12.044921875 6.035156250000001  11.940104166666668 6.000000000000001  11.8125 6.000000000000001  L 7.4375 6.000000000000001  C 7.309895833333335 6.000000000000001  7.205078125 6.035156250000001  7.123046875 6.105468750000001  C 7.041015625 6.175781250000001  7 6.265625  7 6.374999999999999  L 7 8.25  C 7 8.359375  7.041015625 8.44921875  7.123046875 8.51953125  C 7.205078125 8.58984375  7.309895833333335 8.625  7.4375 8.625  L 8.75 8.625  L 8.75 12.375  L 7.4375 12.375  C 7.309895833333335 12.375  7.205078125 12.41015625  7.123046875 12.48046875  C 7.041015625 12.55078125  7 12.640625  7 12.749999999999998  L 7 14.625  C 7 14.734375  7.041015625 14.82421875  7.123046875 14.89453125  C 7.205078125 14.96484375  7.309895833333335 15  7.4375 15  L 13.5625 15  C 13.690104166666666 15  13.794921875 14.96484375  13.876953125 14.89453125  Z M 12.126953125 4.39453125  C 12.208984375 4.32421875  12.25 4.234374999999998  12.25 4.124999999999999  L 12.25 2.25  C 12.25 2.140624999999999  12.208984375 2.050781249999999  12.126953125 1.9804687499999993  C 12.044921875 1.9101562499999993  11.940104166666668 1.8749999999999993  11.8125 1.8749999999999993  L 9.1875 1.8749999999999993  C 9.059895833333334 1.8749999999999993  8.955078125 1.9101562499999993  8.873046875 1.9804687499999993  C 8.791015625 2.050781249999999  8.75 2.140624999999999  8.75 2.25  L 8.75 4.124999999999999  C 8.75 4.234374999999998  8.791015625 4.32421875  8.873046875 4.39453125  C 8.955078125 4.46484375  9.059895833333334 4.5  9.1875 4.5  L 11.8125 4.5  C 11.940104166666668 4.5  12.044921875 4.46484375  12.126953125 4.39453125  Z M 19.591796875 4.482421875  C 20.530598958333332 5.861328124999998  21 7.367187499999997  21 9  C 21 10.6328125  20.530598958333332 12.138671874999998  19.591796875 13.517578125  C 18.652994791666668 14.896484375  17.379231770833332 15.98828125  15.7705078125 16.79296875  C 14.161783854166668 17.59765625  12.404947916666668 18  10.5 18  C 8.595052083333334 18  6.838216145833334 17.59765625  5.2294921875 16.79296875  C 3.620768229166667 15.98828125  2.3470052083333335 14.896484375  1.408203125 13.517578125  C 0.46940104166666663 12.138671874999998  0 10.6328125  0 9  C 0 7.367187499999997  0.46940104166666663 5.861328124999998  1.408203125 4.482421875  C 2.3470052083333335 3.103515625  3.620768229166667 2.0117187499999982  5.2294921875 1.2070312499999993  C 6.838216145833334 0.40234374999999845  8.595052083333334 0  10.5 0  C 12.404947916666668 0  14.161783854166668 0.40234374999999845  15.7705078125 1.2070312499999993  C 17.379231770833332 2.0117187499999982  18.652994791666668 3.103515625  19.591796875 4.482421875  Z " fill-rule="nonzero" fill="#ffffff" stroke="none" transform="matrix(1 0 0 1 88 679 )" />
  </g>
</svg>