<?xml version="1.0" encoding="utf-8"?>
<svg version="1.1" xmlns:xlink="http://www.w3.org/1999/xlink" width="23px" height="22px" xmlns="http://www.w3.org/2000/svg">
  <g transform="matrix(1 0 0 1 -217 -59 )">
    <path d="M 15.198567708333332 18.204427083333336  C 15.288411458333332 18.118489583333336  15.333333333333332 18.008680555555554  15.333333333333332 17.875  L 15.333333333333332 15.583333333333332  C 15.333333333333332 15.449652777777777  15.288411458333332 15.33984375  15.198567708333332 15.25390625  C 15.108723958333332 15.16796875  14.99392361111111 15.125  14.854166666666668 15.125  L 13.416666666666668 15.125  L 13.416666666666668 7.791666666666666  C 13.416666666666668 7.657986111111112  13.371744791666668 7.548177083333334  13.281901041666668 7.462239583333334  C 13.192057291666668 7.376302083333334  13.077256944444446 7.333333333333334  12.9375 7.333333333333334  L 8.145833333333334 7.333333333333334  C 8.006076388888891 7.333333333333334  7.891276041666666 7.376302083333334  7.801432291666666 7.462239583333334  C 7.711588541666666 7.548177083333334  7.666666666666666 7.657986111111112  7.666666666666666 7.791666666666666  L 7.666666666666666 10.083333333333334  C 7.666666666666666 10.21701388888889  7.711588541666666 10.326822916666666  7.801432291666666 10.412760416666666  C 7.891276041666666 10.498697916666666  8.006076388888891 10.541666666666666  8.145833333333334 10.541666666666666  L 9.583333333333334 10.541666666666666  L 9.583333333333334 15.125  L 8.145833333333334 15.125  C 8.006076388888891 15.125  7.891276041666666 15.16796875  7.801432291666666 15.25390625  C 7.711588541666666 15.33984375  7.666666666666666 15.449652777777777  7.666666666666666 15.583333333333332  L 7.666666666666666 17.875  C 7.666666666666666 18.008680555555554  7.711588541666666 18.118489583333336  7.801432291666666 18.204427083333336  C 7.891276041666666 18.290364583333336  8.006076388888891 18.333333333333336  8.145833333333334 18.333333333333336  L 14.854166666666668 18.333333333333336  C 14.99392361111111 18.333333333333336  15.108723958333332 18.290364583333336  15.198567708333332 18.204427083333336  Z M 13.281901041666668 5.37109375  C 13.371744791666668 5.28515625  13.416666666666668 5.1753472222222205  13.416666666666668 5.041666666666666  L 13.416666666666668 2.75  C 13.416666666666668 2.616319444444443  13.371744791666668 2.506510416666666  13.281901041666668 2.420572916666666  C 13.192057291666668 2.334635416666666  13.077256944444446 2.291666666666666  12.9375 2.291666666666666  L 10.0625 2.291666666666666  C 9.922743055555557 2.291666666666666  9.807942708333334 2.334635416666666  9.718098958333334 2.420572916666666  C 9.628255208333334 2.506510416666666  9.583333333333334 2.616319444444443  9.583333333333334 2.75  L 9.583333333333334 5.041666666666666  C 9.583333333333334 5.1753472222222205  9.628255208333334 5.28515625  9.718098958333334 5.37109375  C 9.807942708333334 5.45703125  9.922743055555557 5.5  10.0625 5.5  L 12.9375 5.5  C 13.077256944444446 5.5  13.192057291666668 5.45703125  13.281901041666668 5.37109375  Z M 21.457682291666668 5.478515625  C 22.485894097222218 7.163845486111109  23 9.004340277777775  23 11  C 23 12.995659722222223  22.485894097222218 14.836154513888886  21.457682291666668 16.521484375  C 20.429470486111114 18.20681423611111  19.03439670138889 19.54123263888889  17.2724609375 20.524739583333336  C 15.510525173611114 21.50824652777778  13.586371527777779 22  11.5 22  C 9.413628472222223 22  7.489474826388889 21.50824652777778  5.7275390625 20.524739583333336  C 3.9656032986111116 19.54123263888889  2.5705295138888893 18.20681423611111  1.5423177083333335 16.521484375  C 0.5141059027777777 14.836154513888886  0 12.995659722222223  0 11  C 0 9.004340277777775  0.5141059027777777 7.163845486111109  1.5423177083333335 5.478515625  C 2.5705295138888893 3.7931857638888884  3.9656032986111116 2.458767361111109  5.7275390625 1.4752604166666659  C 7.489474826388889 0.4917534722222203  9.413628472222223 0  11.5 0  C 13.586371527777779 0  15.510525173611114 0.4917534722222203  17.2724609375 1.4752604166666659  C 19.03439670138889 2.458767361111109  20.429470486111114 3.7931857638888884  21.457682291666668 5.478515625  Z " fill-rule="nonzero" fill="#ffffff" stroke="none" transform="matrix(1 0 0 1 217 59 )" />
  </g>
</svg>