<?xml version="1.0" encoding="utf-8"?>
<svg version="1.1" xmlns:xlink="http://www.w3.org/1999/xlink" width="66px" height="54px" xmlns="http://www.w3.org/2000/svg">
  <g>
    <path d="M 0 0  L 66 0  L 66 54  L 0 54  L 0 0  " fill-rule="nonzero" fill="#cccccc" stroke="none" />
    <path d="M 4 4  L 62 4  L 62 50  L 4 50  L 4 4  " fill-rule="nonzero" fill="#ffffff" stroke="none" />
    <path d="M 38.370000000000005 16.2  C 36.102000000000004 16.2  34.32 14.418  34.32 12.149999999999999  C 34.32 9.881999999999998  36.102000000000004 8.1  38.370000000000005 8.1  C 40.638000000000005 8.1  42.42 9.881999999999998  42.42 12.149999999999999  C 42.42 14.418  40.638000000000005 16.2  38.370000000000005 16.2  " fill-rule="nonzero" fill="#cccccc" stroke="none" />
    <path d="M 6 49  L 6 25.349999999999998  L 19.75 14.600000000000001  L 39 27.89090909090909  L 50 21.05  L 61 27.89090909090909  L 61 49  L 6 49  " fill-rule="nonzero" fill="#169bd5" stroke="none" />
  </g>
</svg>